<svg width="36" height="36" viewBox="0 0 36 36" fill="none" xmlns="http://www.w3.org/2000/svg">
<g clip-path="url(#clip0)">
<path d="M30.4791 16.4058C31.504 15.6856 32.1827 14.4875 32.1827 13.1371C32.1827 10.9279 30.396 9.14123 28.1868 9.14123C25.9777 9.14123 24.191 10.9279 24.191 13.1371C24.191 14.4875 24.8627 15.6856 25.8946 16.4058C25.0151 16.7105 24.2118 17.1814 23.5331 17.7908C22.5982 16.9944 21.4971 16.385 20.2921 16.0249C21.7533 15.1385 22.7367 13.5249 22.7367 11.6897C22.7367 8.89192 20.4721 6.62738 17.6744 6.62738C14.8766 6.62738 12.612 8.89885 12.612 11.6897C12.612 13.5249 13.5885 15.1385 15.0566 16.0249C13.8655 16.385 12.7782 16.9875 11.8503 17.77C11.1716 17.1745 10.3821 16.7105 9.51646 16.4127C10.5414 15.6925 11.2201 14.4944 11.2201 13.144C11.2201 10.9349 9.43336 9.14816 7.22422 9.14816C5.01508 9.14816 3.22837 10.9349 3.22837 13.144C3.22837 14.4944 3.90012 15.6925 4.93198 16.4127C2.18267 17.3615 0.208984 19.9723 0.208984 23.0401V23.4972C0.208984 23.511 0.222835 23.5249 0.236685 23.5249H8.70621C8.65774 23.9058 8.63004 24.3005 8.63004 24.6952V25.1662C8.63004 27.2022 10.2782 28.8504 12.3142 28.8504H23.0483C25.0843 28.8504 26.7325 27.2022 26.7325 25.1662V24.6952C26.7325 24.3005 26.7048 23.9058 26.6564 23.5249H35.1813C35.1951 23.5249 35.209 23.511 35.209 23.4972V23.0401C35.1951 19.9653 33.2284 17.3545 30.4791 16.4058ZM25.299 13.1302C25.299 11.5374 26.594 10.2423 28.1868 10.2423C29.7796 10.2423 31.0746 11.5374 31.0746 13.1302C31.0746 14.7022 29.8073 15.9833 28.2422 16.018C28.2215 16.018 28.2076 16.018 28.1868 16.018C28.166 16.018 28.1522 16.018 28.1314 16.018C26.5594 15.9903 25.299 14.7091 25.299 13.1302ZM13.7062 11.6897C13.7062 9.50827 15.4791 7.73541 17.6605 7.73541C19.8419 7.73541 21.6148 9.50827 21.6148 11.6897C21.6148 13.795 19.9597 15.5193 17.889 15.6371C17.8129 15.6371 17.7367 15.6371 17.6605 15.6371C17.5843 15.6371 17.5082 15.6371 17.432 15.6371C15.3613 15.5193 13.7062 13.795 13.7062 11.6897ZM4.31563 13.1302C4.31563 11.5374 5.61065 10.2423 7.20344 10.2423C8.79624 10.2423 10.0913 11.5374 10.0913 13.1302C10.0913 14.7022 8.82394 15.9833 7.25885 16.018C7.23807 16.018 7.22422 16.018 7.20344 16.018C7.18267 16.018 7.16882 16.018 7.14804 16.018C5.58295 15.9903 4.31563 14.7091 4.31563 13.1302ZM8.90012 22.4099H1.33087C1.6425 19.4598 4.13558 17.1468 7.16189 17.126C7.17574 17.126 7.18959 17.126 7.20344 17.126C7.2173 17.126 7.23115 17.126 7.245 17.126C8.68544 17.1329 10.0012 17.6662 11.0192 18.5318C10.022 19.6121 9.28101 20.9418 8.90012 22.4099ZM25.6106 25.1662C25.6106 26.5858 24.4541 27.7423 23.0345 27.7423H12.3004C10.8807 27.7423 9.72422 26.5858 9.72422 25.1662V24.6952C9.72422 20.3947 13.1591 16.8767 17.432 16.752C17.5082 16.759 17.5913 16.759 17.6674 16.759C17.7436 16.759 17.8267 16.759 17.9029 16.752C22.1757 16.8767 25.6106 20.3947 25.6106 24.6952V25.1662ZM26.4347 22.4099C26.0539 20.9487 25.3267 19.6398 24.3364 18.5595C25.3613 17.6731 26.691 17.1398 28.1453 17.126C28.1591 17.126 28.173 17.126 28.1868 17.126C28.2007 17.126 28.2145 17.126 28.2284 17.126C31.2547 17.1468 33.7478 19.4598 34.0594 22.4099H26.4347Z" fill="#D1A73B"/>
</g>
<defs>
<clipPath id="clip0">
<rect width="35" height="35" fill="white" transform="translate(0.208984 0.238892)"/>
</clipPath>
</defs>
</svg>
