<svg width="36" height="36" viewBox="0 0 36 36" fill="none" xmlns="http://www.w3.org/2000/svg">
<path d="M34.6738 23.9688L31.3379 19.5664L27.0107 22.9707L27.9336 24.1055L30.3262 22.1504L30.2031 23.4014C28.9795 28.9111 24.2969 32.9854 18.8486 33.3135V13.4619H22.2529V12.04H18.8486V7.69922C20.2158 7.37109 21.2617 6.11328 21.2617 4.58887C21.2617 2.81152 19.8398 1.39648 18.1377 1.39648C16.4355 1.39648 15.0137 2.81836 15.0137 4.58887C15.0137 6.10645 16.0596 7.37109 17.4268 7.69922V12.04H14.0225V13.4619H17.4268V33.3135C11.9785 32.9854 7.2959 28.9111 6.07227 23.4014L5.9834 22.1777L8.3418 24.1123L9.26465 22.9775L4.9375 19.5732L1.60156 23.9756L2.73633 24.8301L4.60254 22.376L4.71875 23.627V23.6953C6.07227 30.0664 11.7529 34.7559 18.1377 34.7559C24.5225 34.7559 30.2031 30.0664 31.5498 23.6816L31.7002 22.4033L33.5391 24.8164L34.6738 23.9688ZM16.4355 4.5957C16.4355 3.60449 17.2148 2.81836 18.1377 2.81836C19.0605 2.81836 19.8398 3.59766 19.8398 4.5957C19.8398 5.58691 19.0605 6.37305 18.1377 6.37305C17.2148 6.36621 16.4355 5.58691 16.4355 4.5957Z" fill="#D1A73B"/>
</svg>
