<svg width="36" height="36" viewBox="0 0 36 36" fill="none" xmlns="http://www.w3.org/2000/svg">
<g clip-path="url(#clip0)">
<path d="M20.282 15.514C20.2736 15.4917 20.264 15.4699 20.253 15.4488L18.8857 12.8136C18.7361 12.5253 18.3812 12.4126 18.0925 12.5624C17.804 12.712 17.6915 13.0672 17.8412 13.3556L19.1918 15.9586C19.9097 17.9069 19.8308 20.0185 18.9687 21.9086C18.1017 23.8092 16.5461 25.2585 14.5888 25.9896C13.793 26.2868 12.9589 26.4515 12.1095 26.4794C11.2602 26.4515 10.426 26.2868 9.63006 25.9896C7.67279 25.2586 6.11734 23.8093 5.25027 21.9086C4.38812 20.0185 4.30924 17.9068 5.02728 15.9586L12.1095 2.30809L16.9081 11.5573C17.0578 11.8457 17.4128 11.9582 17.7015 11.8086C17.9899 11.6589 18.1024 11.3038 17.9528 11.0153L12.6319 0.759409C12.5306 0.56438 12.3292 0.442017 12.1095 0.442017C11.8897 0.442017 11.6883 0.56438 11.5871 0.759409L3.9658 15.4488C3.95493 15.4699 3.94529 15.4917 3.93695 15.514C3.09593 17.7657 3.18199 20.2101 4.17963 22.3969C5.17713 24.5836 6.96657 26.251 9.21833 27.0919C10.1406 27.4364 11.1073 27.6262 12.0915 27.6562C12.0975 27.6564 12.1035 27.6565 12.1095 27.6565C12.1155 27.6565 12.1215 27.6564 12.1274 27.6562C13.1117 27.6262 14.0784 27.4364 15.0005 27.0919C17.2523 26.251 19.0418 24.5836 20.0393 22.3969C21.0368 20.2103 21.123 17.7659 20.282 15.514Z" fill="#D1A73B"/>
<path d="M32.0804 19.4553C32.072 19.433 32.0623 19.4112 32.0515 19.3902L30.711 16.8065C30.5614 16.5182 30.2064 16.4057 29.9177 16.5552C29.6292 16.7049 29.5168 17.06 29.6663 17.3485L30.9898 19.8992C31.6532 21.729 30.7165 23.7629 28.8893 24.4452C28.5302 24.5793 28.1541 24.6541 27.7712 24.6678C27.3882 24.6542 27.0121 24.5793 26.653 24.4453C25.7625 24.1128 25.0549 23.4534 24.6605 22.5887C24.2709 21.7345 24.2328 20.7807 24.5527 19.8993L27.7712 13.6959L28.8375 15.7512C28.9873 16.0397 29.3423 16.1521 29.6308 16.0026C29.9193 15.8529 30.0318 15.4977 29.8821 15.2092L28.2935 12.1472C28.1923 11.9523 27.9908 11.8298 27.7711 11.8298C27.5514 11.8298 27.35 11.9522 27.2488 12.1472L23.4909 19.3902C23.48 19.4113 23.4704 19.433 23.462 19.4553C23.0195 20.6402 23.0648 21.9264 23.5897 23.0771C24.1146 24.2278 25.0562 25.1052 26.2412 25.5478C26.7266 25.7289 27.2353 25.8288 27.7531 25.8447C27.7591 25.8449 27.7651 25.8449 27.7711 25.8449C27.7771 25.8449 27.7831 25.8449 27.7894 25.8446C28.3071 25.8288 28.8157 25.7289 29.3011 25.5476C31.747 24.6343 32.9938 21.9013 32.0804 19.4553Z" fill="#D1A73B"/>
<path d="M24.569 30.854L22.0651 26.0278C21.9639 25.8328 21.7625 25.7104 21.5428 25.7104C21.323 25.7104 21.1216 25.8327 21.0205 26.0278L18.5163 30.854C18.5053 30.8751 18.4956 30.8969 18.4872 30.9192C17.8409 32.6505 18.7234 34.585 20.4548 35.2316C20.7983 35.3597 21.1582 35.4304 21.5246 35.4417C21.5307 35.4419 21.5367 35.442 21.5428 35.442C21.5488 35.442 21.5548 35.4419 21.5609 35.4417C21.9271 35.4304 22.2871 35.3597 22.6309 35.2315C24.3621 34.5849 25.2445 32.6504 24.5979 30.9192C24.5896 30.8969 24.5799 30.8751 24.569 30.854ZM22.2192 34.129C22.0017 34.2102 21.7741 34.2559 21.5426 34.2649C21.311 34.2559 21.0834 34.2103 20.8661 34.1292C19.7533 33.7136 19.181 32.4778 19.5781 31.3625L21.5426 27.5765L23.5068 31.3625C23.9041 32.4778 23.3318 33.7135 22.2192 34.129Z" fill="#D1A73B"/>
</g>
<defs>
<clipPath id="clip0">
<rect width="35" height="35" fill="white" transform="translate(0.371094 0.442017)"/>
</clipPath>
</defs>
</svg>
