<svg width="36" height="36" viewBox="0 0 36 36" fill="none" xmlns="http://www.w3.org/2000/svg">
<g clip-path="url(#clip0)">
<path d="M34.4703 28.5315L31.6511 29.3114C29.9089 29.8009 28.0656 29.8009 26.3235 29.3114C24.3777 28.7653 22.3192 28.7653 20.3735 29.3114C18.6315 29.8003 16.7885 29.8003 15.0465 29.3114C13.0996 28.7652 11.0399 28.7652 9.09298 29.3114C7.35349 29.8 5.51305 29.8 3.77356 29.3114L0.99106 28.5321C0.680815 28.4451 0.358795 28.6261 0.271811 28.9364C0.184826 29.2466 0.365815 29.5686 0.676061 29.6556L3.46264 30.4355C5.40832 30.9821 7.46697 30.9821 9.41264 30.4355C11.1545 29.9468 12.9972 29.9468 14.7391 30.4355C16.6848 30.9818 18.7433 30.9818 20.6891 30.4355C22.4306 29.9464 24.2733 29.9464 26.0149 30.4355C27.9606 30.9822 30.0192 30.9822 31.9649 30.4355L34.7824 29.6556C34.9833 29.6 35.1393 29.4414 35.1915 29.2396C35.2438 29.0378 35.1844 28.8234 35.0358 28.6772C34.8871 28.5311 34.6718 28.4753 34.4709 28.5309L34.4703 28.5315Z" fill="#D1A73B"/>
<path d="M0.693637 25.0228C0.428019 25.0718 0.230774 25.2967 0.216891 25.5664C0.203009 25.8362 0.376119 26.0802 0.635304 26.1562L3.46155 26.9355C5.40723 27.4821 7.46588 27.4821 9.41156 26.9355C11.1534 26.4468 12.9961 26.4468 14.738 26.9355C16.6837 27.4818 18.7423 27.4818 20.688 26.9355C22.4296 26.4464 24.2722 26.4464 26.0138 26.9355C27.9595 27.4821 30.0181 27.4821 31.9638 26.9355L34.7813 26.1556C34.9822 26.1 35.1382 25.9414 35.1904 25.7396C35.2427 25.5377 35.1833 25.3234 35.0347 25.1772C34.886 25.0311 34.6707 24.9753 34.4698 25.0309L31.65 25.8114C30.2518 26.2027 28.7844 26.2792 27.3531 26.0354L35.0502 17.8262C35.15 17.7175 35.2045 17.5747 35.2025 17.4272H35.2083V16.2605C35.2083 15.294 34.4248 14.5105 33.4583 14.5105H28.7916C27.8251 14.5105 27.0416 15.294 27.0416 16.2605V16.8439H26.1789L22.6468 11.798C22.8463 11.5842 22.9575 11.3029 22.9583 11.0105V9.84386C22.9583 9.19952 22.436 8.67719 21.7916 8.67719H16.8146L14.43 5.81477C13.9512 5.24176 13.1652 5.02946 12.463 5.28356C11.7609 5.53765 11.2928 6.20384 11.2916 6.95052V8.67719H10.125C8.83631 8.67719 7.79164 9.72186 7.79164 11.0105C7.79164 11.6549 8.31397 12.1772 8.9583 12.1772H10.223L5.72314 19.1772H3.09814C2.43377 19.1754 1.82624 19.5517 1.53189 20.1473L0.452721 22.3056C0.159822 22.8951 0.129527 23.5808 0.369304 24.1939L0.693637 25.0228ZM20.3741 25.8126C18.6321 26.3014 16.7892 26.3014 15.0471 25.8126C13.1002 25.2663 11.0405 25.2663 9.09364 25.8126C7.35348 26.3006 5.51263 26.3006 3.77247 25.8126L2.07497 25.3424L1.48405 23.8439H27.8105L26.0325 25.7409C24.1724 25.2703 22.2216 25.2951 20.3741 25.8126ZM34.0416 16.2605V16.8439H31.7083V15.6772H33.4583C33.7805 15.6772 34.0416 15.9384 34.0416 16.2605ZM28.2083 16.2605C28.2083 15.9384 28.4695 15.6772 28.7916 15.6772H30.5416V16.8439H28.2083V16.2605ZM12.4583 6.95052C12.4595 6.69497 12.6201 6.46732 12.8604 6.38051C13.1008 6.2937 13.3698 6.36619 13.534 6.56202L15.2962 8.67719H12.4583V6.95052ZM10.125 9.84386H21.7916V11.0105H8.9583C8.9583 10.3662 9.48064 9.84386 10.125 9.84386ZM11.6101 12.1772H21.4877L22.7127 13.9272H17.7083C17.3861 13.9272 17.125 14.1884 17.125 14.5105C17.125 14.8327 17.3861 15.0939 17.7083 15.0939H23.5294L24.7544 16.8439H23.25C22.2129 16.8437 21.1853 17.0417 20.2225 17.4272L17.0964 18.6755C16.2708 19.0068 15.3895 19.177 14.5 19.1772H7.1103L11.6101 12.1772ZM2.57722 20.6688C2.67586 20.4691 2.87955 20.3431 3.10222 20.3439H14.5C15.5371 20.344 16.5647 20.146 17.5275 19.7605L20.6536 18.5122C21.4791 18.181 22.3604 18.0107 23.25 18.0105H33.2775L28.9025 22.6772H1.5733L2.57722 20.6688Z" fill="#D1A73B"/>
<path d="M27.6243 20.9272C27.9465 20.9272 28.2077 20.6661 28.2077 20.3439V19.7606C28.2077 19.4384 27.9465 19.1772 27.6243 19.1772C27.3022 19.1772 27.041 19.4384 27.041 19.7606V20.3439C27.041 20.6661 27.3022 20.9272 27.6243 20.9272Z" fill="#D1A73B"/>
<path d="M25.2904 20.9272C25.6125 20.9272 25.8737 20.6661 25.8737 20.3439V19.7606C25.8737 19.4384 25.6125 19.1772 25.2904 19.1772C24.9682 19.1772 24.707 19.4384 24.707 19.7606V20.3439C24.707 20.6661 24.9682 20.9272 25.2904 20.9272Z" fill="#D1A73B"/>
<path d="M12.4583 15.0939C12.7805 15.0939 13.0417 14.8327 13.0417 14.5106C13.0417 14.1884 12.7805 13.9272 12.4583 13.9272C12.1362 13.9272 11.875 14.1884 11.875 14.5106C11.875 14.8327 12.1362 15.0939 12.4583 15.0939Z" fill="#D1A73B"/>
<path d="M10.7083 18.0105C11.0305 18.0105 11.2917 17.7494 11.2917 17.4272C11.2917 17.105 11.0305 16.8439 10.7083 16.8439C10.3862 16.8439 10.125 17.105 10.125 17.4272C10.125 17.7494 10.3862 18.0105 10.7083 18.0105Z" fill="#D1A73B"/>
</g>
<defs>
<clipPath id="clip0">
<rect width="35" height="35" fill="white" transform="translate(0.208984 0.510498)"/>
</clipPath>
</defs>
</svg>
