<svg width="36" height="36" viewBox="0 0 36 36" fill="none" xmlns="http://www.w3.org/2000/svg">
<path d="M31.7028 34.3386H5.85383C5.72839 34.3386 5.60809 34.2888 5.51939 34.2001C5.43069 34.1114 5.38086 33.9911 5.38086 33.8656V25.9334C5.38086 25.808 5.43069 25.6877 5.51939 25.599C5.60809 25.5103 5.72839 25.4604 5.85383 25.4604H11.3432V22.9192C11.3432 22.7937 11.393 22.6734 11.4817 22.5847C11.5704 22.496 11.6907 22.4462 11.8161 22.4462H18.1573V19.4291C18.1573 19.3036 18.2071 19.1833 18.2958 19.0946C18.3845 19.0059 18.5048 18.9561 18.6303 18.9561H24.3282V15.7801C24.3282 15.6547 24.378 15.5344 24.4667 15.4457C24.5554 15.357 24.6757 15.3071 24.8011 15.3071H31.7028C31.8282 15.3071 31.9485 15.357 32.0372 15.4457C32.1259 15.5344 32.1757 15.6547 32.1757 15.7801V33.8656C32.1757 33.9911 32.1259 34.1114 32.0372 34.2001C31.9485 34.2888 31.8282 34.3386 31.7028 34.3386ZM6.32681 33.3927H31.2298V16.2531H25.2741V19.4291C25.2741 19.5545 25.2243 19.6748 25.1356 19.7635C25.0469 19.8522 24.9266 19.9021 24.8011 19.9021H19.1032V22.9192C19.1032 23.0446 19.0534 23.1649 18.9647 23.2536C18.876 23.3423 18.7557 23.3921 18.6303 23.3921H12.2891V25.9334C12.2891 26.0589 12.2393 26.1792 12.1506 26.2679C12.0619 26.3566 11.9416 26.4064 11.8161 26.4064H6.32681V33.3927Z" fill="#D1A73B"/>
<path d="M7.6962 25.293C7.39905 25.2923 7.10803 25.2084 6.85614 25.0508C6.60425 24.8931 6.40156 24.6681 6.27103 24.4011C6.14051 24.1341 6.08738 23.836 6.11766 23.5404C6.14794 23.2447 6.26042 22.9635 6.44235 22.7286L9.46276 18.5735L10.3855 10.9861L9.64627 11.312L8.70742 12.9603C8.53012 13.2797 8.23378 13.5161 7.88296 13.618C7.53214 13.72 7.15525 13.6792 6.83439 13.5045C6.51353 13.3298 6.2747 13.0354 6.16991 12.6854C6.06511 12.3354 6.10286 11.9582 6.27492 11.6359L7.56093 9.16277C7.70005 8.89495 7.91141 8.67146 8.17107 8.51764L10.9725 6.85892C11.2582 6.69076 11.5789 6.59074 11.9095 6.56663C12.2402 6.54251 12.5719 6.59495 12.879 6.71987L15.5357 7.8077C15.9235 7.96593 16.2563 8.23469 16.4926 8.58054L17.4172 9.93041L19.2892 9.38602C19.6411 9.28683 20.0177 9.32812 20.3397 9.5012C20.6617 9.67428 20.9039 9.96561 21.0153 10.3138C21.1267 10.662 21.0985 11.0398 20.9367 11.3676C20.775 11.6954 20.4923 11.9477 20.1482 12.0711L17.6111 12.9546C17.3406 13.0477 17.0503 13.0676 16.7697 13.0121C16.489 12.9566 16.2281 12.8277 16.0134 12.6387L15.5736 12.2508L15.4255 13.7099C16.1156 14.0701 16.6822 14.6285 17.0521 15.3134C17.4221 15.9983 17.5786 16.7782 17.5014 17.5528L17.1765 21.8569C17.1602 22.0691 17.102 22.2759 17.0052 22.4654C16.9084 22.6549 16.775 22.8233 16.6127 22.9608C16.4503 23.0984 16.2623 23.2024 16.0595 23.2667C15.8567 23.3311 15.6431 23.3546 15.4312 23.3358C15.2192 23.317 15.0131 23.2564 14.8248 23.1573C14.6364 23.0583 14.4696 22.9229 14.334 22.759C14.1983 22.595 14.0966 22.4058 14.0346 22.2022C13.9727 21.9987 13.9517 21.7848 13.973 21.5731L14.2568 17.6947C14.2682 17.5842 14.2473 17.4727 14.1967 17.3738C14.146 17.2749 14.0678 17.1928 13.9715 17.1375C13.8751 17.0821 13.7648 17.0559 13.6538 17.062C13.5429 17.068 13.4361 17.1061 13.3463 17.1716C13.2837 17.217 13.231 17.2746 13.1913 17.3409C13.1517 17.4073 13.1259 17.481 13.1155 17.5576L12.871 19.4291C12.8247 19.7704 12.6806 20.0911 12.4562 20.3524L8.91553 24.7316C8.76473 24.9075 8.5777 25.0487 8.36725 25.1456C8.15679 25.2425 7.92789 25.2928 7.6962 25.293ZM10.9555 9.74406C11.0224 9.74403 11.0886 9.75823 11.1497 9.7857C11.2107 9.81317 11.2653 9.85329 11.3097 9.90341C11.3541 9.95353 11.3873 10.0125 11.4072 10.0764C11.4271 10.1404 11.4332 10.2078 11.4251 10.2743L10.3846 18.8086C10.375 18.8886 10.3451 18.9648 10.2976 19.0299L7.19627 23.2952C7.14128 23.3644 7.10093 23.4441 7.07767 23.5294C7.05442 23.6147 7.04875 23.7038 7.061 23.7914C7.07196 23.8763 7.09988 23.9582 7.1431 24.0321C7.18633 24.106 7.24398 24.1705 7.31262 24.2218C7.44392 24.3198 7.60744 24.3645 7.77036 24.347C7.93328 24.3294 8.08352 24.2509 8.19093 24.1272L11.7259 19.7541L11.7363 19.7418C11.8431 19.6187 11.9116 19.4671 11.9336 19.3057L12.1786 17.4341C12.206 17.2313 12.2741 17.0362 12.3787 16.8603C12.4834 16.6845 12.6225 16.5316 12.7877 16.4108C12.9529 16.29 13.1407 16.2038 13.34 16.1574C13.5393 16.1109 13.7459 16.1052 13.9475 16.1405C14.3221 16.2081 14.658 16.4129 14.8896 16.7149C15.1212 17.0169 15.2319 17.3945 15.1999 17.7737L14.9161 21.6521C14.8998 21.8247 14.9517 21.9968 15.0609 22.1315C15.17 22.2661 15.3276 22.3527 15.4998 22.3724C15.5874 22.3826 15.6762 22.3751 15.761 22.3504C15.8457 22.3258 15.9246 22.2844 15.9932 22.2288C16.0617 22.1732 16.1184 22.1045 16.16 22.0266C16.2015 21.9488 16.2271 21.8634 16.2353 21.7755L16.5602 17.4715C16.6249 16.8492 16.4903 16.2225 16.1757 15.6817C15.8612 15.1409 15.383 14.7139 14.8102 14.4624L14.7506 14.4378C14.6538 14.4005 14.572 14.3324 14.5178 14.2441C14.4635 14.1557 14.4398 14.052 14.4503 13.9488L14.7255 11.2363C14.7343 11.1498 14.7669 11.0673 14.8195 10.9981C14.8721 10.9288 14.9428 10.8754 15.0238 10.8437C15.1048 10.8121 15.193 10.8033 15.2786 10.8185C15.3643 10.8337 15.4441 10.8722 15.5092 10.9298L16.6392 11.9273C16.7282 12.0056 16.8363 12.0589 16.9526 12.0819C17.0689 12.1049 17.1892 12.0968 17.3013 12.0583L19.8384 11.1748C19.9519 11.1342 20.0452 11.0511 20.0985 10.943C20.1518 10.8349 20.1611 10.7103 20.1242 10.5955C20.0874 10.4807 20.0073 10.3848 19.901 10.3279C19.7947 10.271 19.6705 10.2577 19.5546 10.2908L17.3505 10.9312C17.2552 10.9586 17.1536 10.9553 17.0603 10.9217C16.9669 10.8882 16.8864 10.8262 16.8303 10.7444L15.7121 9.11169C15.5799 8.91852 15.3939 8.76839 15.1772 8.67987L12.5205 7.59203C12.3489 7.52202 12.1634 7.49264 11.9786 7.50617C11.7937 7.51971 11.6145 7.5758 11.4549 7.67007L8.65492 9.33162C8.54719 9.39543 8.45952 9.48818 8.40188 9.59933L7.11586 12.072C7.06449 12.1739 7.05479 12.2918 7.0888 12.4008C7.12282 12.5097 7.19789 12.6011 7.29812 12.6557C7.39835 12.7103 7.51589 12.7237 7.62585 12.6932C7.73581 12.6626 7.82957 12.5905 7.88728 12.492L8.90323 10.7084C8.95349 10.6203 9.03076 10.5507 9.12363 10.5098L10.7667 9.7852C10.8261 9.75865 10.8904 9.74465 10.9555 9.74406Z" fill="#D1A73B"/>
<path d="M15.2069 7.29299C14.4444 7.29253 13.712 6.99536 13.1647 6.46437C12.6175 5.93338 12.2983 5.21027 12.2748 4.4481C12.2514 3.68594 12.5254 2.94455 13.0389 2.38088C13.5525 1.81722 14.2652 1.47552 15.0263 1.42813C15.8022 1.38156 16.565 1.6447 17.1472 2.15981C17.7293 2.67493 18.0834 3.39994 18.1317 4.1758C18.18 4.95165 17.9185 5.71497 17.4047 6.2983C16.8909 6.88162 16.1667 7.23731 15.3909 7.28732C15.3294 7.2911 15.268 7.29299 15.2069 7.29299ZM15.0849 2.37407C14.6922 2.3985 14.3156 2.53884 14.0026 2.77734C13.6897 3.01584 13.4545 3.34178 13.3268 3.71395C13.1991 4.08612 13.1846 4.48779 13.2852 4.86818C13.3858 5.24857 13.597 5.59058 13.892 5.85097C14.1869 6.11135 14.5525 6.27841 14.9425 6.33102C15.3324 6.38363 15.7292 6.31943 16.0826 6.14653C16.436 5.97363 16.7303 5.6998 16.9281 5.35967C17.1259 5.01954 17.2184 4.6284 17.1939 4.23569C17.1796 3.9743 17.1135 3.71836 16.9994 3.48277C16.8852 3.24717 16.7254 3.03663 16.5291 2.86339C16.3329 2.69015 16.1041 2.55767 15.8562 2.47367C15.6082 2.38966 15.3461 2.35581 15.0849 2.37407Z" fill="#D1A73B"/>
</svg>
