<svg width="31" height="31" viewBox="0 0 31 31" fill="none" xmlns="http://www.w3.org/2000/svg">
<g clip-path="url(#clip0)">
<path d="M15.8764 0.299439C9.87453 0.298564 4.45016 3.87613 2.08784 9.39354L1.90088 9.45553L1.97336 9.67299C-1.13699 17.3443 2.5603 26.0845 10.2316 29.1949C12.0233 29.9213 13.9386 30.2943 15.872 30.2932C24.1545 30.2944 30.8698 23.5811 30.8711 15.2986C30.8723 7.01604 24.159 0.300626 15.8764 0.299439ZM27.6398 22.8575L26.8697 22.0879V20.2953C26.8706 20.2179 26.8534 20.1414 26.8197 20.0718L24.8701 16.1781V14.2965C24.8701 14.1294 24.7867 13.9733 24.6476 13.8806L23.1479 12.8808C23.0304 12.8023 22.8851 12.7773 22.748 12.8118L20.9114 13.2707L17.8266 11.947L17.4021 8.97363L18.5784 7.79788H21.1034L21.9532 9.07511C22.0299 9.18996 22.1508 9.26801 22.2871 9.29057L25.2865 9.79046C25.3669 9.80396 25.4492 9.7974 25.5265 9.77147L28.2889 8.85066C30.6058 13.2969 30.358 18.6446 27.6398 22.8575ZM25.5779 5.22541L24.7651 5.7673L22.4991 5.31389L21.0289 4.8245C20.9389 4.79394 20.8421 4.79007 20.7499 4.8135L18.8913 5.2779L18.0765 5.00646L18.6804 3.79871H20.371C20.4486 3.79877 20.5251 3.78084 20.5945 3.74622L22.3241 2.8814C23.5152 3.50315 24.611 4.29248 25.5779 5.22541ZM10.3966 2.4155L11.5964 3.21533C11.6553 3.25457 11.722 3.28082 11.7918 3.29231L14.2143 3.69623L13.9779 4.40358L12.7156 4.825C12.6026 4.86261 12.5067 4.93935 12.4452 5.04145L11.0095 7.43395L8.70346 8.81766L5.30417 9.30306C5.05778 9.33787 4.87457 9.54864 4.87426 9.79746V11.2971C4.87426 11.4297 4.927 11.5568 5.02073 11.6506L5.87405 12.5039V13.3627L3.79448 11.976L3.04014 9.71298C4.47534 6.43366 7.10586 3.8242 10.3966 2.4155ZM8.9734 18.8056L6.71388 18.3532L5.87405 16.678V15.5033L7.73666 13.6407L8.42602 15.0199C8.51069 15.1893 8.68396 15.2964 8.87343 15.2963H12.0898L13.444 17.5533C13.5343 17.7038 13.6969 17.7957 13.8724 17.7958H15.2621L14.9122 19.5489L13.0196 21.4415C12.9256 21.5352 12.8728 21.6623 12.8726 21.795V23.0447L11.073 24.3944C10.9471 24.4888 10.873 24.637 10.873 24.7943V26.6L10.2511 26.394L9.37332 24.1985V19.2955C9.37338 19.0579 9.20617 18.8531 8.9734 18.8056ZM7.47072 26.4903C2.75739 22.9542 0.764115 16.8445 2.48526 11.2092L2.90067 12.4549C2.93566 12.5603 3.00477 12.6511 3.09713 12.7129L5.58911 14.374L5.02073 14.9429C4.927 15.0366 4.87426 15.1637 4.87426 15.2963V16.796C4.8742 16.8735 4.89213 16.95 4.92675 17.0195L5.92654 19.019C5.99577 19.1571 6.12494 19.2555 6.27647 19.2855L8.37603 19.7049V24.2944C8.37597 24.3579 8.38803 24.4209 8.41152 24.4799L9.41131 26.9794C9.46605 27.1159 9.57815 27.2215 9.71775 27.2678L11.2174 27.7677C11.2676 27.7847 11.32 27.7935 11.3729 27.7937C11.649 27.7937 11.8728 27.5699 11.8728 27.2938V25.0443L13.6724 23.6946C13.7983 23.6001 13.8724 23.452 13.8724 23.2946V22.0019L15.7255 20.1488C15.7952 20.079 15.8427 19.9901 15.862 19.8934L16.3619 17.3939C16.416 17.1231 16.2404 16.8598 15.9696 16.8057C15.9375 16.7992 15.9048 16.796 15.872 16.796H14.1553L12.8011 14.539C12.7108 14.3886 12.5482 14.2966 12.3727 14.2965H9.18236L8.32354 12.5734C8.25162 12.4295 8.1149 12.3291 7.95612 12.3034C7.7974 12.276 7.63537 12.3284 7.52271 12.4434L6.87384 13.0898V12.2969C6.87384 12.1643 6.8211 12.0372 6.72737 11.9435L5.87405 11.0902V10.2309L8.94441 9.79246C9.01033 9.7829 9.07376 9.76028 9.13087 9.72597L11.6304 8.22629C11.7005 8.18417 11.7592 8.12543 11.8013 8.05532L13.206 5.71431L14.5302 5.2724C14.6798 5.22335 14.7971 5.10606 14.8462 4.95647L15.3461 3.45678C15.4327 3.19465 15.2904 2.91189 15.0283 2.82529C15.0041 2.81729 14.9793 2.81117 14.9542 2.80692L12.0608 2.32452L11.5524 1.98559C14.6981 0.961676 18.1053 1.0884 21.1664 2.34301L20.2531 2.79892H18.3714C18.181 2.79786 18.0066 2.90508 17.9215 3.07536L16.9217 5.07494C16.7986 5.32202 16.899 5.6222 17.1461 5.74537C17.1671 5.75586 17.1889 5.76486 17.2112 5.7723L18.7109 6.27219C18.8009 6.30275 18.8977 6.30662 18.9898 6.28319L20.8484 5.81879L22.2101 6.27219C22.2296 6.27919 22.2497 6.28457 22.2701 6.28819L24.7696 6.78809C24.8996 6.81458 25.0348 6.78796 25.145 6.7141L26.2828 5.95526C26.8427 6.57894 27.3459 7.2513 27.7865 7.96434L25.327 8.78417L22.6641 8.34026L21.7842 7.02054C21.692 6.88225 21.537 6.7989 21.3708 6.79808H18.3714C18.2388 6.79808 18.1117 6.85082 18.018 6.94455L16.5183 8.44424C16.407 8.55553 16.3546 8.71281 16.3769 8.86865L16.8768 12.3679C16.9019 12.541 17.0157 12.6882 17.1767 12.7563L20.676 14.256C20.7762 14.2995 20.888 14.3084 20.9939 14.2815L22.779 13.8351L23.8703 14.564V16.2961C23.8694 16.3735 23.8865 16.4499 23.9203 16.5196L25.8699 20.4132V22.2949C25.8699 22.4275 25.9226 22.5546 26.0164 22.6483L27.0621 23.6946C22.4242 29.8766 13.6527 31.1283 7.47072 26.4903Z" fill="#D1A73B"/>
</g>
<defs>
<clipPath id="clip0">
<rect width="30" height="30" fill="white" transform="translate(0.871094 0.296875)"/>
</clipPath>
</defs>
</svg>
