<svg width="21" height="21" viewBox="0 0 21 21" fill="none" xmlns="http://www.w3.org/2000/svg">
<g clip-path="url(#clip0)">
<path d="M18.502 0.606934H3.18945C1.89711 0.606934 0.845703 1.65834 0.845703 2.95068V18.2632C0.845703 19.5555 1.89711 20.6069 3.18945 20.6069H18.502C19.7943 20.6069 20.8457 19.5555 20.8457 18.2632V2.95068C20.8457 1.65834 19.7943 0.606934 18.502 0.606934ZM19.2832 18.2632C19.2832 18.694 18.9327 19.0444 18.502 19.0444H14.0488V12.6772H16.4625L16.8613 10.2554H14.0488V8.57568C14.0488 7.9126 14.5576 7.40381 15.2207 7.40381H16.8223V4.98193H15.2207C13.2315 4.98193 11.6278 6.59326 11.6278 8.58248V10.2554H9.2832V12.6772H11.6278V19.0444H3.18945C2.75867 19.0444 2.4082 18.694 2.4082 18.2632V2.95068C2.4082 2.5199 2.75867 2.16943 3.18945 2.16943H18.502C18.9327 2.16943 19.2832 2.5199 19.2832 2.95068V18.2632Z" fill="white"/>
</g>
<defs>
<clipPath id="clip0">
<rect width="20" height="20" fill="white" transform="translate(0.845703 0.606934)"/>
</clipPath>
</defs>
</svg>
