<svg width="21" height="21" viewBox="0 0 21 21" fill="none" xmlns="http://www.w3.org/2000/svg">
<g clip-path="url(#clip0)">
<path d="M10.8485 5.47119C8.01263 5.47119 5.7168 7.76953 5.7168 10.6029C5.7168 13.4387 8.01513 15.7345 10.8485 15.7345C13.6843 15.7345 15.9801 13.4362 15.9801 10.6029C15.9801 7.76703 13.6818 5.47119 10.8485 5.47119ZM10.8485 13.9337C9.00763 13.9337 7.51763 12.4429 7.51763 10.6029C7.51763 8.76286 9.00846 7.27203 10.8485 7.27203C12.6885 7.27203 14.1793 8.76286 14.1793 10.6029C14.1801 12.4429 12.6893 13.9337 10.8485 13.9337Z" fill="white"/>
<path d="M14.9673 0.669268C13.1273 0.583434 8.56977 0.587601 6.72811 0.669268C5.10977 0.745101 3.68227 1.13593 2.53144 2.28677C0.608106 4.2101 0.853939 6.80177 0.853939 10.6026C0.853939 14.4926 0.637273 17.0243 2.53144 18.9184C4.46227 20.8484 7.09144 20.5959 10.8473 20.5959C14.7006 20.5959 16.0306 20.5984 17.3931 20.0709C19.2456 19.3518 20.6439 17.6959 20.7806 14.7218C20.8673 12.8809 20.8623 8.32427 20.7806 6.4826C20.6156 2.97177 18.7314 0.842601 14.9673 0.669268ZM17.8798 17.6459C16.6189 18.9068 14.8698 18.7943 10.8231 18.7943C6.65644 18.7943 4.98561 18.8559 3.76644 17.6334C2.36227 16.2359 2.61644 13.9918 2.61644 10.5893C2.61644 5.9851 2.14394 2.66927 6.76477 2.4326C7.82644 2.3951 8.13894 2.3826 10.8114 2.3826L10.8489 2.4076C15.2898 2.4076 18.7739 1.9426 18.9831 6.5626C19.0306 7.61677 19.0414 7.93343 19.0414 10.6018C19.0406 14.7201 19.1189 16.4009 17.8798 17.6459Z" fill="white"/>
<path d="M16.1835 6.46766C16.8458 6.46766 17.3827 5.93078 17.3827 5.2685C17.3827 4.60622 16.8458 4.06934 16.1835 4.06934C15.5213 4.06934 14.9844 4.60622 14.9844 5.2685C14.9844 5.93078 15.5213 6.46766 16.1835 6.46766Z" fill="white"/>
</g>
<defs>
<clipPath id="clip0">
<rect width="20" height="20" fill="white" transform="translate(0.845703 0.605957)"/>
</clipPath>
</defs>
</svg>
