<?xml version="1.0" standalone="no"?>
<!DOCTYPE svg PUBLIC "-//W3C//DTD SVG 20010904//EN"
 "http://www.w3.org/TR/2001/REC-SVG-20010904/DTD/svg10.dtd">
<svg version="1.0" xmlns="http://www.w3.org/2000/svg"
 width="6670.000000pt" height="5854.000000pt" viewBox="0 0 6670.000000 5854.000000"
 preserveAspectRatio="xMidYMid meet">
<metadata>
Created by potrace 1.16, written by Peter Selinger 2001-2019
</metadata>
<g transform="translate(0.000000,5854.000000) scale(0.100000,-0.100000)"
fill="#fff" stroke="none">
<path d="M33366 57984 c-203 -305 -373 -553 -377 -552 -5 2 -183 244 -398 539
l-389 535 -204 -4 c-111 -2 -205 -6 -206 -7 -2 -2 231 -323 517 -713 l521
-710 10 -418 c5 -231 10 -470 10 -531 l0 -113 168 0 167 0 -3 162 c-2 90 -6
330 -10 533 l-8 370 455 675 c250 371 472 701 493 733 l39 57 -208 0 -208 -1
-369 -555z"/>
<path d="M30781 58379 c-486 -54 -886 -100 -888 -103 -3 -2 3 -76 13 -164 l17
-160 31 4 c50 8 731 82 732 81 0 -1 54 -488 119 -1082 65 -594 120 -1082 122
-1084 3 -5 325 27 329 32 1 1 -52 481 -117 1067 -65 586 -118 1074 -119 1085
0 20 16 23 358 59 196 21 368 40 381 43 22 5 23 9 18 57 -3 28 -11 99 -18 159
l-12 107 -41 -1 c-22 -1 -439 -46 -925 -100z"/>
<path d="M35319 58458 c-5 -11 -276 -2484 -273 -2487 8 -9 319 -40 325 -33 3
4 25 185 48 402 24 217 47 436 53 485 l10 91 297 -34 c324 -36 474 -38 585 -8
237 65 427 253 506 501 34 107 40 321 11 436 -66 266 -260 461 -526 529 -93
24 -1030 130 -1036 118z m631 -392 c162 -19 315 -42 340 -50 160 -59 259 -192
268 -361 10 -198 -79 -366 -233 -440 -89 -42 -173 -43 -515 -5 -156 17 -286
33 -288 35 -2 2 17 190 42 417 25 227 46 419 46 426 0 17 6 16 340 -22z"/>
<path d="M29392 58182 c-118 -21 -142 -28 -138 -41 2 -9 98 -565 212 -1236
114 -671 208 -1221 209 -1223 1 -1 75 10 164 24 124 21 161 31 161 42 0 15
-406 2399 -415 2440 -7 27 -10 27 -193 -6z"/>
<path d="M38019 58050 c-386 -70 -716 -340 -880 -720 -93 -215 -133 -411 -132
-650 0 -287 59 -490 210 -718 160 -242 403 -397 733 -468 119 -26 394 -26 498
-1 459 111 801 484 916 998 72 322 51 614 -62 878 -148 342 -402 555 -782 653
-102 27 -135 31 -285 34 -93 1 -191 -1 -216 -6z m276 -320 c205 -23 375 -95
498 -210 252 -235 331 -580 227 -985 -83 -322 -254 -547 -509 -669 -111 -53
-199 -69 -344 -64 -229 9 -414 80 -557 215 -258 242 -329 607 -204 1040 106
368 382 630 706 672 89 12 84 12 183 1z"/>
<path d="M27650 57821 c-117 -28 -155 -40 -153 -51 5 -34 544 -2406 551 -2421
6 -15 92 3 720 146 392 89 714 164 716 166 2 2 -12 75 -32 162 -29 128 -39
156 -51 153 -64 -18 -1093 -247 -1096 -244 -4 3 -485 2111 -485 2123 0 7 9 8
-170 -34z"/>
<path d="M40055 57437 c-31 -95 -207 -628 -392 -1185 -184 -558 -333 -1019
-330 -1025 6 -16 297 -111 307 -101 5 5 138 402 296 882 159 479 291 872 294
872 3 0 163 -493 355 -1097 l350 -1096 70 -24 c39 -13 71 -28 73 -33 2 -5 9
-7 16 -4 6 2 32 -2 56 -11 24 -8 47 -12 50 -8 4 5 181 536 394 1181 213 646
390 1180 392 1187 4 9 -40 28 -148 64 -84 28 -156 51 -160 51 -4 0 -136 -390
-294 -867 -157 -478 -289 -871 -293 -875 -3 -4 -163 477 -355 1070 -192 592
-353 1084 -357 1093 -4 8 -34 23 -66 32 -48 13 -61 21 -70 44 -11 27 -11 27
-18 6 l-7 -21 -54 18 -53 19 -56 -172z"/>
<path d="M26100 57396 c0 -21 -8 -28 -55 -42 -48 -16 -55 -21 -60 -48 -12 -76
-217 -2667 -211 -2673 3 -4 83 18 176 48 145 46 170 57 170 74 0 39 50 638 53
641 5 5 1061 344 1062 341 1 -1 97 -115 213 -254 l212 -251 102 32 c207 66
248 80 246 87 -2 4 -390 463 -863 1020 -473 557 -867 1022 -876 1033 -15 18
-17 18 -68 1 -48 -16 -54 -16 -70 -1 -24 22 -31 20 -31 -8z m560 -976 c289
-344 338 -406 322 -413 -10 -4 -190 -64 -400 -131 l-382 -123 0 27 c0 14 18
254 40 531 22 277 40 515 40 529 0 24 0 24 19 5 11 -11 173 -202 361 -425z"/>
<path d="M24591 56844 c-79 -35 -146 -66 -149 -69 -3 -2 138 -332 313 -732
175 -400 329 -761 342 -801 13 -41 28 -115 35 -165 28 -228 -75 -426 -286
-546 -125 -71 -233 -104 -356 -109 -116 -4 -188 13 -280 66 -68 40 -179 159
-231 248 -26 43 -185 396 -354 784 -169 388 -312 715 -318 728 -6 12 -14 22
-20 22 -8 0 -288 -119 -296 -126 -3 -3 543 -1262 631 -1453 53 -115 156 -267
236 -349 273 -276 634 -330 1040 -154 234 102 402 255 493 447 62 133 73 188
73 370 0 185 -16 270 -87 445 -68 169 -632 1460 -637 1459 -3 0 -70 -29 -149
-65z"/>
<path d="M42282 56712 c-33 -75 -62 -143 -64 -151 -2 -10 102 -60 342 -166
227 -101 344 -158 343 -166 -2 -8 -196 -453 -432 -990 -237 -537 -431 -982
-433 -989 -3 -14 279 -143 297 -136 5 2 206 450 445 995 239 545 438 991 442
991 4 0 160 -67 348 -150 187 -82 344 -150 348 -150 10 0 134 279 130 292 -3
7 -1595 714 -1690 750 -13 6 -27 -19 -76 -130z"/>
<path d="M44639 55561 c-156 -29 -343 -105 -480 -197 -288 -191 -538 -577
-613 -947 -63 -308 0 -655 165 -898 228 -339 697 -563 1087 -519 452 50 824
332 1047 795 108 224 152 430 142 660 -23 484 -284 840 -762 1040 -116 48
-217 67 -380 70 -88 2 -181 0 -206 -4z m346 -336 c271 -70 511 -260 607 -483
38 -89 59 -208 59 -327 0 -165 -35 -303 -122 -478 -173 -349 -448 -568 -763
-607 -342 -42 -742 207 -859 535 -89 250 -49 551 110 830 158 278 373 459 623
524 94 25 260 28 345 6z"/>
<path d="M21850 55511 c-210 -47 -409 -148 -584 -296 -259 -220 -403 -603
-366 -969 34 -340 194 -672 444 -922 143 -143 297 -241 481 -307 229 -81 501
-82 730 0 178 64 360 179 488 309 66 67 178 221 192 263 3 12 12 21 18 21 7 0
93 -22 192 -49 99 -27 182 -48 184 -45 5 4 81 318 78 320 -1 1 -81 23 -177 49
l-176 47 4 161 c6 251 -34 431 -149 658 -196 391 -483 640 -859 745 -131 36
-372 43 -500 15z m382 -330 c290 -74 519 -279 678 -606 58 -119 86 -201 105
-314 19 -105 20 -220 3 -226 -7 -3 -119 24 -248 60 -129 36 -240 65 -247 65
-13 0 -10 9 -59 -174 -28 -104 -34 -140 -25 -146 7 -4 116 -35 242 -70 126
-35 229 -67 229 -72 0 -18 -62 -100 -116 -153 -178 -178 -459 -284 -676 -255
-198 27 -354 106 -509 260 -270 266 -419 652 -369 957 27 170 93 304 205 418
116 118 280 214 435 254 102 27 252 27 352 2z"/>
<path d="M46885 54095 c-295 -54 -569 -217 -772 -459 -169 -201 -276 -406
-334 -636 -21 -84 -24 -117 -23 -290 0 -178 3 -203 26 -292 76 -280 239 -496
511 -675 115 -77 223 -125 355 -160 133 -36 369 -38 510 -5 281 65 528 218
720 447 190 226 302 454 347 708 14 78 16 131 12 260 -7 204 -32 309 -112 469
-155 309 -512 574 -852 633 -103 18 -291 18 -388 0z m415 -345 c148 -50 270
-128 385 -244 117 -120 181 -238 211 -392 53 -281 -43 -576 -281 -864 -239
-287 -591 -424 -894 -345 -186 48 -409 208 -515 369 -76 115 -126 281 -126
417 0 245 118 518 325 754 143 162 345 283 546 325 77 16 275 5 349 -20z"/>
<path d="M34225 54033 c-229 -12 -561 -58 -821 -115 -139 -30 -181 -48 -110
-48 19 0 68 -7 108 -15 302 -63 591 -234 786 -467 180 -214 291 -442 379 -778
19 -74 50 -171 68 -215 220 -532 804 -897 1695 -1059 166 -30 418 -58 484 -54
l49 3 -80 33 c-242 98 -475 328 -614 603 -94 188 -151 351 -280 798 -107 372
-164 538 -231 681 -126 269 -237 392 -443 491 -239 115 -575 164 -990 142z"/>
<path d="M31520 53904 c-334 -30 -889 -130 -1050 -191 -8 -3 39 -20 105 -37
227 -61 424 -150 619 -280 341 -228 567 -526 715 -939 27 -75 65 -166 85 -201
148 -264 418 -462 796 -584 203 -66 394 -102 690 -134 135 -14 713 -15 780 -1
l45 10 -58 12 c-204 44 -351 126 -521 290 -188 183 -322 390 -543 841 -80 162
-180 367 -223 455 -91 186 -208 384 -277 470 -114 140 -285 225 -548 271 -87
16 -505 27 -615 18z"/>
<path d="M36875 53793 c-130 -10 -274 -27 -370 -44 -150 -27 -285 -59 -285
-68 0 -4 17 -13 38 -19 128 -38 362 -181 499 -304 315 -283 505 -632 618
-1138 46 -206 72 -286 139 -425 182 -380 526 -699 1016 -944 237 -118 441
-197 660 -255 51 -14 96 -24 98 -21 3 2 -26 37 -62 77 -119 127 -223 306 -299
509 -61 162 -113 348 -206 734 -158 655 -298 1103 -408 1305 -188 347 -537
543 -1048 590 -102 9 -295 11 -390 3z"/>
<path d="M29020 53543 c-266 -11 -601 -89 -930 -219 -167 -67 -501 -226 -520
-249 -8 -10 15 -15 102 -25 349 -37 696 -147 964 -305 272 -160 473 -362 654
-657 59 -95 212 -249 320 -320 334 -221 807 -352 1435 -398 152 -11 651 -12
700 -1 27 6 21 10 -64 40 -319 111 -576 309 -813 626 -33 44 -112 159 -176
255 -268 408 -306 463 -389 571 -100 131 -345 382 -448 457 -220 163 -500 238
-835 225z"/>
<path d="M18697 53435 c-116 -32 -259 -129 -335 -227 -117 -153 -159 -368
-106 -550 58 -195 235 -376 469 -479 57 -25 74 -37 70 -48 -17 -43 -55 -206
-64 -275 -23 -161 -5 -289 59 -421 103 -214 291 -378 490 -426 76 -19 249 -16
334 5 266 65 529 295 627 550 27 69 39 117 65 255 5 23 7 24 75 17 38 -3 123
-9 188 -13 l119 -6 200 159 c111 87 200 160 198 161 -1 2 -97 8 -212 13 -246
12 -564 36 -571 44 -3 2 -13 48 -23 100 -30 151 -151 579 -171 600 -7 8 -303
-78 -321 -93 -4 -4 11 -58 33 -121 49 -139 84 -256 109 -368 l18 -83 -26 5
c-15 3 -112 19 -217 36 -189 30 -357 62 -427 81 l-36 9 30 78 c16 42 43 129
60 192 26 97 31 134 32 235 1 144 -19 214 -93 327 -78 120 -175 199 -290 238
-71 24 -207 26 -284 5z m212 -355 c75 -55 121 -154 121 -262 0 -51 -22 -137
-68 -260 l-36 -97 -89 46 c-111 57 -197 135 -234 211 -23 47 -28 70 -27 127 1
104 47 183 137 235 73 42 138 42 196 0z m299 -1059 c128 -33 377 -81 567 -110
208 -31 199 -23 170 -147 -44 -191 -183 -350 -358 -411 -79 -27 -207 -24 -272
7 -77 37 -168 134 -213 227 -35 74 -37 83 -36 173 1 105 39 280 60 280 3 0 40
-9 82 -19z"/>
<path d="M39234 53063 c-18 -3 -9 -16 65 -91 233 -235 429 -577 551 -957 74
-233 117 -462 145 -778 25 -282 68 -437 181 -657 215 -417 619 -783 1179
-1066 150 -75 331 -151 341 -142 3 3 -13 30 -35 59 -83 109 -151 277 -190 470
-30 145 -47 291 -91 779 -80 882 -138 1271 -220 1481 -205 520 -728 832 -1505
899 -116 9 -378 12 -421 3z"/>
<path d="M48344 52013 c-406 -439 -789 -853 -852 -920 -63 -67 -112 -127 -110
-132 3 -11 230 -221 238 -221 3 0 289 307 635 681 347 375 631 676 633 668 1
-8 -58 -522 -132 -1144 l-135 -1130 55 -55 c30 -31 54 -61 54 -68 0 -7 5 -10
11 -6 6 3 26 -9 45 -27 26 -25 38 -31 49 -24 27 18 1696 1828 1693 1836 -4 11
-232 219 -240 219 -3 0 -287 -303 -630 -674 -477 -516 -624 -669 -625 -653 -1
12 55 524 126 1137 l128 1115 -50 51 c-38 40 -48 56 -42 73 7 23 -4 28 -23 9
-9 -9 -21 -4 -51 26 l-39 38 -738 -799z"/>
<path d="M26150 52484 c-258 -37 -553 -141 -821 -289 -167 -91 -518 -332 -519
-356 0 -3 46 -9 103 -13 214 -15 433 -50 665 -107 403 -99 738 -261 943 -456
101 -97 151 -161 219 -283 111 -198 276 -308 548 -365 401 -83 1061 -3 1782
216 91 28 169 55 174 60 6 5 -52 9 -150 9 -251 0 -419 32 -564 105 -126 65
-211 145 -420 400 -261 317 -453 512 -713 718 -275 220 -487 320 -770 361
-127 19 -346 19 -477 0z"/>
<path d="M41845 52143 c6 -5 43 -35 83 -67 201 -162 355 -383 441 -634 121
-352 131 -758 36 -1473 -28 -212 -31 -328 -10 -426 70 -331 337 -672 789
-1008 184 -137 518 -346 531 -333 3 3 -8 35 -25 71 -41 91 -77 218 -103 367
-20 113 -22 159 -21 475 0 381 6 467 80 1049 51 411 74 623 74 697 0 206 -150
415 -458 636 -266 191 -700 403 -1185 579 -176 64 -252 86 -232 67z"/>
<path d="M16834 51863 l-140 -148 131 -657 c82 -407 128 -658 121 -658 -6 0
-305 46 -665 102 l-654 103 -139 -145 c-76 -79 -138 -147 -138 -152 0 -4 5 -8
12 -8 7 0 397 -59 867 -130 l855 -131 75 -72 c42 -39 215 -204 384 -367 169
-162 311 -296 315 -298 4 -1 58 52 121 119 l114 121 -29 27 c-419 398 -743
716 -747 734 -3 12 -78 393 -167 847 -88 454 -164 833 -168 843 -6 15 -31 -7
-148 -130z"/>
<path d="M24085 51451 c-419 -78 -916 -313 -1528 -724 -170 -113 -529 -376
-541 -395 -3 -5 92 -12 217 -15 600 -16 1127 -136 1622 -369 431 -203 739
-298 1150 -354 181 -25 528 -25 680 0 282 45 504 132 684 266 76 57 211 190
211 208 0 5 -30 12 -67 16 -312 31 -683 168 -958 354 -266 179 -453 379 -636
682 -115 189 -224 280 -394 326 -94 25 -317 28 -440 5z"/>
<path d="M44270 50754 c0 -4 18 -35 39 -69 131 -207 263 -540 325 -818 64
-286 74 -494 47 -1052 -27 -587 26 -1071 163 -1472 153 -452 431 -792 803
-982 l39 -19 -4 293 c-10 678 68 1218 235 1620 25 61 55 137 68 170 123 325
-14 794 -371 1272 -333 444 -813 841 -1238 1023 -97 41 -106 44 -106 34z"/>
<path d="M50596 49565 c-527 -431 -963 -788 -968 -793 -11 -11 628 -799 708
-872 67 -63 132 -106 217 -145 100 -45 166 -59 282 -58 196 2 375 88 527 252
107 116 178 291 178 440 l0 66 113 -3 c183 -6 305 34 446 144 283 221 350 573
169 882 -45 76 -686 871 -703 871 -5 0 -441 -352 -969 -784z m1146 55 c227
-277 276 -353 285 -443 24 -230 -241 -457 -460 -393 -96 28 -158 87 -392 375
-175 214 -213 267 -203 277 31 30 543 444 550 444 4 0 103 -117 220 -260z
m-811 -685 c263 -322 284 -359 284 -485 -1 -112 -28 -180 -101 -259 -97 -105
-192 -152 -307 -153 -83 0 -171 38 -243 104 -70 64 -478 568 -468 578 42 40
600 490 606 488 5 -2 108 -125 229 -273z"/>
<path d="M15217 49880 c-116 -29 -243 -99 -331 -181 -56 -52 -437 -518 -658
-806 -6 -7 296 -254 968 -788 537 -427 982 -778 988 -780 10 -4 198 226 204
250 1 6 -170 148 -381 315 l-383 305 115 145 c63 80 115 146 116 147 0 1 929
-55 1148 -70 l59 -3 121 153 c67 85 123 157 125 162 3 10 -44 14 -676 47 -287
16 -527 31 -532 34 -6 4 0 35 14 78 100 292 29 579 -194 785 -104 97 -193 152
-314 194 -101 35 -278 41 -389 13z m327 -364 c85 -42 173 -118 215 -186 72
-117 81 -265 23 -382 -28 -57 -405 -544 -419 -542 -8 1 -672 528 -672 534 -1
9 340 435 387 484 97 99 190 139 316 132 65 -4 91 -11 150 -40z"/>
<path d="M21670 49784 c-368 -67 -815 -321 -1316 -749 -135 -115 -542 -516
-584 -574 l-24 -34 35 7 c429 92 902 71 1429 -66 170 -44 311 -91 535 -179
111 -43 248 -92 306 -108 513 -148 1023 -82 1497 195 231 135 428 291 681 539
l173 170 -43 7 c-24 4 -119 19 -210 33 -608 95 -1301 338 -1756 616 -101 62
-196 107 -275 130 -98 28 -325 35 -448 13z"/>
<path d="M46649 48943 c27 -69 77 -252 101 -366 104 -510 104 -1025 0 -1537
-27 -134 -44 -198 -130 -490 -45 -154 -61 -256 -67 -430 -8 -224 13 -393 77
-617 98 -341 294 -698 579 -1053 83 -104 338 -370 354 -370 6 0 7 16 3 39 -31
196 -27 626 10 951 70 631 261 1345 494 1855 75 164 94 282 70 432 -63 390
-475 890 -1145 1388 -160 119 -343 245 -357 245 -4 0 1 -21 11 -47z"/>
<path d="M13796 48295 c-48 -76 -84 -140 -79 -144 4 -5 289 -189 633 -411 344
-221 654 -423 690 -448 140 -99 247 -226 292 -347 19 -49 23 -80 22 -170 0
-100 -3 -117 -32 -190 -60 -152 -173 -301 -282 -374 -165 -110 -358 -114 -576
-11 -45 20 -381 232 -748 469 -367 237 -672 433 -678 434 -9 2 -194 -272 -186
-277 76 -57 1344 -866 1413 -902 290 -153 586 -175 831 -64 260 118 499 424
575 735 26 111 26 284 -1 391 -57 223 -218 434 -451 591 -177 119 -1305 846
-1319 850 -11 3 -43 -37 -104 -132z"/>
<path d="M52515 48229 c-319 -31 -664 -205 -910 -460 -152 -158 -245 -310
-306 -498 -112 -350 -61 -678 157 -1008 350 -529 1027 -665 1628 -326 391 221
645 558 712 948 23 130 15 328 -19 458 -51 194 -168 396 -320 554 -192 198
-413 304 -696 333 -113 11 -128 11 -246 -1z m313 -345 c152 -31 276 -99 388
-212 115 -116 206 -276 245 -432 40 -157 13 -363 -68 -525 -105 -209 -317
-402 -574 -524 -164 -78 -244 -96 -429 -96 -149 1 -159 2 -252 34 -125 43
-226 109 -320 210 -166 179 -262 421 -244 618 31 338 248 625 618 818 172 89
295 122 461 124 54 1 132 -6 175 -15z"/>
<path d="M19310 47765 c-472 -86 -894 -466 -1205 -1085 -67 -134 -175 -395
-175 -424 0 -13 13 -6 51 28 220 198 608 235 1244 120 199 -36 504 -104 765
-170 l225 -58 180 0 c154 -1 195 2 285 22 510 114 1088 469 1718 1055 90 84
168 160 174 171 9 17 7 18 -17 12 -179 -45 -553 -81 -730 -71 -299 17 -490 53
-988 184 -501 133 -737 182 -1037 216 -163 18 -388 18 -490 0z"/>
<path d="M48557 46748 c112 -557 86 -1217 -68 -1747 -50 -171 -95 -283 -205
-511 -169 -352 -189 -433 -189 -755 1 -189 4 -235 23 -325 71 -332 214 -655
442 -995 78 -116 217 -296 290 -375 58 -62 57 -66 25 75 -22 99 -30 292 -16
398 37 279 123 486 466 1122 300 556 473 922 521 1100 63 235 48 495 -42 745
-63 175 -201 409 -346 588 -140 172 -382 404 -593 569 -103 81 -309 223 -322
223 -5 0 1 -50 14 -112z"/>
<path d="M12596 46392 l-95 -189 255 -548 c140 -301 253 -549 251 -551 -3 -3
-1170 -234 -1182 -234 -6 0 -197 -381 -193 -385 2 -1 341 67 753 151 413 85
757 154 765 154 10 0 123 -239 349 -741 184 -407 337 -742 341 -744 3 -2 49
81 103 184 l97 188 -274 591 c-151 326 -272 592 -270 592 2 0 287 56 634 125
347 69 633 125 635 125 3 0 48 86 100 190 64 128 90 190 81 190 -8 0 -364 -72
-792 -160 -427 -88 -784 -160 -793 -160 -12 0 -100 184 -336 705 -175 388
-322 705 -327 705 -4 0 -50 -85 -102 -188z"/>
<path d="M53446 45469 c-731 -60 -1332 -112 -1335 -115 -6 -6 148 -312 160
-320 4 -2 139 7 300 21 161 14 309 25 329 25 l35 0 77 -152 c43 -84 156 -307
253 -495 l175 -342 -216 -251 -216 -252 84 -164 c45 -90 85 -164 88 -163 4 0
1648 1929 1734 2035 l29 35 -28 50 c-25 46 -26 52 -11 68 23 25 20 31 -12 31
-24 0 -32 7 -52 50 -18 38 -29 50 -44 49 -12 -1 -619 -50 -1350 -110z m944
-264 c0 -3 -161 -194 -359 -424 l-358 -420 -192 376 c-106 206 -191 376 -189
378 3 2 1011 91 1076 94 12 0 22 -1 22 -4z"/>
<path d="M17855 45489 c-447 -65 -816 -375 -1160 -974 -115 -200 -465 -929
-452 -941 3 -3 44 20 93 52 337 218 746 396 1103 480 216 51 343 64 736 74
392 10 559 24 760 66 522 110 937 389 1314 884 100 131 206 288 200 295 -3 2
-45 -2 -94 -10 -560 -90 -1250 -80 -1865 26 -96 17 -215 37 -265 45 -98 15
-275 17 -370 3z"/>
<path d="M55291 44259 c-79 -32 -146 -60 -148 -63 -2 -2 59 -162 137 -355 77
-193 140 -352 140 -354 0 -1 -454 -185 -1010 -407 -555 -223 -1010 -410 -1010
-415 0 -6 26 -76 59 -155 40 -99 63 -144 72 -142 8 2 463 183 1012 403 550
220 1001 398 1003 396 2 -2 67 -161 144 -352 77 -192 142 -350 144 -352 2 -2
70 23 152 56 97 38 148 64 147 73 -4 22 -683 1712 -691 1719 -4 3 -72 -20
-151 -52z"/>
<path d="M50366 44163 c-86 -737 -298 -1305 -562 -1503 -139 -104 -206 -185
-287 -347 -233 -464 -303 -1244 -162 -1803 93 -370 285 -664 520 -801 l50 -29
12 123 c43 423 182 833 386 1131 81 118 226 269 352 365 54 42 121 103 147
136 234 290 305 854 192 1532 -103 623 -339 1164 -573 1315 -25 15 -48 28 -51
28 -4 0 -15 -66 -24 -147z"/>
<path d="M11513 44203 c-3 -10 -30 -79 -58 -153 -38 -96 -49 -137 -41 -142 7
-4 329 -129 716 -278 388 -150 743 -290 788 -311 208 -96 342 -242 382 -418
39 -168 -46 -452 -181 -605 -149 -169 -388 -214 -661 -124 -33 10 -357 134
-721 275 -364 140 -690 266 -723 279 l-61 23 -61 -156 c-34 -86 -60 -157 -59
-158 1 -1 344 -133 761 -294 462 -178 801 -303 865 -319 92 -22 127 -26 261
-26 188 0 251 13 400 86 93 45 115 61 200 147 109 110 178 218 239 375 61 156
84 284 78 436 -6 146 -22 214 -78 327 -89 184 -244 330 -464 440 -69 35 -1549
613 -1569 613 -3 0 -9 -8 -13 -17z"/>
<path d="M19034 43579 c-425 -214 -784 -267 -1644 -240 -545 17 -874 -5 -1041
-70 -133 -51 -284 -167 -403 -309 -234 -279 -441 -699 -613 -1245 -57 -180
-166 -601 -160 -619 2 -5 29 29 60 77 223 342 590 537 1184 627 195 29 425 48
783 65 341 15 414 25 565 78 105 37 159 62 259 121 377 222 714 623 990 1176
92 185 181 392 174 407 -1 4 -71 -26 -154 -68z"/>
<path d="M55665 42104 c-38 -8 -111 -35 -161 -59 -73 -35 -103 -57 -156 -114
-72 -75 -127 -174 -154 -276 -17 -66 -33 -372 -34 -665 0 -96 -5 -204 -11
-240 -12 -78 -54 -172 -98 -223 -41 -46 -143 -97 -213 -106 -219 -28 -384 105
-477 384 -88 266 -58 475 104 719 32 48 56 88 54 90 -14 13 -291 178 -293 175
-2 -2 -31 -45 -63 -96 -147 -224 -209 -502 -170 -758 58 -369 238 -673 468
-783 118 -58 200 -76 339 -75 97 0 129 5 200 28 121 38 204 88 286 169 76 76
123 150 155 243 41 119 50 207 59 573 5 195 14 382 19 415 14 78 64 178 105
210 48 36 113 57 184 57 122 1 266 -100 339 -238 45 -84 83 -223 90 -330 10
-156 -27 -275 -133 -427 -31 -43 -52 -83 -47 -87 8 -8 283 -170 288 -170 8 0
109 167 139 230 62 131 79 214 80 390 1 175 -14 262 -70 419 -53 149 -106 233
-219 346 -103 104 -166 145 -282 186 -78 28 -234 34 -328 13z"/>
<path d="M51533 41668 c32 -304 -54 -741 -204 -1039 -137 -274 -313 -488 -569
-694 -340 -272 -543 -586 -644 -995 -90 -369 -85 -801 15 -1262 29 -134 94
-355 108 -371 4 -4 27 44 51 105 88 229 194 425 319 591 194 258 427 455 963
815 295 198 332 233 408 387 81 161 110 309 110 553 0 481 -173 1133 -490
1850 -35 78 -66 142 -70 142 -3 0 -2 -37 3 -82z"/>
<path d="M12660 40915 c-85 -300 -159 -545 -164 -545 -4 0 -474 133 -1044 295
-569 163 -1040 294 -1045 292 -10 -3 -101 -306 -95 -313 5 -4 2352 -673 2389
-681 26 -5 28 -2 43 48 62 206 387 1361 384 1363 -5 4 -296 86 -305 86 -4 0
-78 -245 -163 -545z"/>
<path d="M17734 41328 c-195 -148 -543 -335 -827 -443 -353 -134 -731 -217
-1122 -245 -401 -29 -619 -120 -841 -352 -344 -359 -505 -933 -569 -2033 l-6
-100 36 74 c84 175 263 388 455 541 285 226 670 419 1120 560 523 163 695 226
897 328 519 262 733 559 852 1182 25 133 83 531 78 536 -2 2 -35 -19 -73 -48z"/>
<path d="M52400 39065 c-82 -412 -239 -778 -432 -1011 -110 -133 -211 -203
-391 -271 -233 -87 -368 -173 -532 -337 -204 -205 -350 -464 -446 -794 -98
-335 -142 -769 -121 -1166 13 -220 31 -406 41 -405 3 0 30 50 59 111 99 203
263 427 453 618 208 209 417 358 726 518 221 115 339 193 457 304 312 291 475
681 493 1173 12 349 -62 740 -218 1151 -68 178 -73 184 -89 109z"/>
<path d="M16875 38752 c-45 -71 -167 -212 -248 -288 -235 -218 -508 -379 -821
-483 -181 -60 -341 -94 -576 -121 -246 -29 -355 -59 -507 -140 -396 -213 -658
-676 -767 -1360 -46 -285 -51 -371 -51 -837 0 -383 5 -493 22 -447 2 6 48 78
101 160 196 298 435 596 655 817 296 297 550 466 854 571 490 168 814 378
1029 666 197 264 309 616 344 1085 12 163 13 425 3 425 -5 -1 -21 -22 -38 -48z"/>
<path d="M10582 38605 c-77 -22 -111 -42 -168 -101 -50 -51 -94 -137 -94 -183
0 -10 -20 -128 -45 -262 -252 -1360 -365 -2572 -365 -3924 0 -4406 1364 -8719
3885 -12285 761 -1076 1543 -1991 2536 -2965 1130 -1110 2453 -2132 3847
-2974 139 -85 255 -151 258 -148 3 3 -105 79 -240 170 -3621 2443 -6428 5927
-8039 9979 -859 2159 -1373 4471 -1511 6803 -31 511 -39 873 -33 1490 8 910
52 1591 157 2445 67 537 199 1356 236 1456 57 157 28 302 -82 411 -87 85 -226
121 -342 88z"/>
<path d="M55820 38605 c-159 -45 -259 -179 -260 -347 0 -52 6 -94 19 -130 22
-59 80 -371 140 -753 199 -1255 284 -2499 260 -3794 -75 -3987 -1244 -7894
-3362 -11241 -1608 -2540 -3703 -4698 -6224 -6410 -133 -90 -240 -166 -238
-168 12 -12 619 365 1045 649 1897 1262 3574 2814 4971 4599 1379 1761 2477
3744 3232 5835 529 1464 890 2950 1097 4505 74 559 122 1093 161 1770 17 300
23 1395 10 1750 -40 1091 -155 2136 -347 3148 -19 100 -39 217 -45 260 -26
196 -156 324 -343 338 -38 2 -82 -2 -116 -11z"/>
<path d="M29460 38314 c-30 -2 -134 -8 -230 -14 -750 -47 -1605 -193 -2145
-367 l-109 -35 -189 -151 -189 -150 -472 -130 c-259 -71 -473 -130 -474 -132
-2 -2 -22 -52 -43 -112 l-40 -108 -122 -125 c-67 -69 -153 -157 -192 -197
l-69 -72 97 -46 c54 -26 101 -45 106 -43 5 2 58 64 118 138 l109 135 334 67
c1171 235 2536 452 3530 562 677 75 1067 99 1605 99 936 0 1797 -85 3023 -299
205 -36 377 -62 382 -59 16 10 3 22 -68 64 -256 149 -955 416 -1312 501 -74
17 -184 47 -245 65 -531 162 -1667 336 -2575 395 -172 11 -735 21 -830 14z"/>
<path d="M31435 36723 c-629 -25 -1698 -160 -2647 -334 -328 -59 -902 -179
-990 -205 -10 -3 -137 -135 -283 -294 -221 -241 -271 -290 -298 -295 -18 -3
-176 -25 -352 -50 -1175 -166 -2588 -421 -3710 -670 -389 -87 -902 -208 -909
-216 -14 -17 -146 -232 -144 -234 2 -2 289 -4 638 -5 l635 -2 615 81 c3490
461 6937 836 8510 925 1678 96 3820 76 5839 -54 322 -21 357 -23 350 -15 -3 2
-452 151 -997 330 l-992 325 -271 150 -271 150 -292 44 c-1565 241 -3102 381
-4096 374 -146 -1 -296 -3 -335 -5z"/>
<path d="M52857 36589 c-45 -79 -197 -305 -272 -404 -334 -440 -683 -727
-1032 -848 -333 -116 -600 -343 -855 -727 -232 -350 -388 -767 -444 -1190 -24
-184 -12 -540 22 -638 2 -8 27 19 60 64 187 260 449 523 683 683 179 122 349
199 565 257 257 68 446 182 656 393 284 285 469 626 585 1076 65 252 93 460
101 760 7 249 -14 625 -35 625 -3 0 -19 -23 -34 -51z"/>
<path d="M16505 36120 c-404 -407 -826 -695 -1185 -809 -69 -22 -165 -52 -215
-67 -450 -133 -806 -565 -990 -1203 -100 -349 -145 -792 -125 -1234 6 -114 14
-247 20 -295 5 -48 10 -95 10 -104 0 -34 15 -17 73 80 74 123 198 300 307 439
99 126 333 368 440 458 171 142 356 250 545 315 193 66 338 158 511 323 396
378 693 984 771 1577 18 136 12 496 -9 598 l-13 62 -140 -140z"/>
<path d="M46140 35214 c-157 -8 -631 -30 -1055 -49 -5241 -241 -9330 -505
-10915 -705 -199 -25 -1398 -163 -2480 -284 -3554 -400 -7806 -842 -8478 -882
l-112 -7 -91 -159 c-66 -115 -96 -159 -112 -163 -12 -2 -251 -23 -531 -47
-311 -26 -514 -47 -520 -54 -7 -6 -27 -108 -45 -225 -18 -118 -35 -224 -38
-236 -5 -22 -3 -23 78 -23 46 0 1595 49 3442 110 2627 86 3369 107 3403 99 82
-21 124 -84 124 -186 0 -42 0 -42 -42 -47 -24 -3 -1586 -75 -3473 -161 -1886
-85 -3466 -159 -3510 -163 l-80 -7 -68 -438 c-38 -242 -67 -441 -64 -443 18
-18 2337 -292 3307 -390 l265 -27 125 75 c1234 739 2596 1140 3957 1165 348 6
517 -4 730 -43 412 -75 644 -241 644 -460 0 -140 -102 -271 -255 -324 -127
-45 -224 -51 -921 -60 -619 -8 -711 -12 -869 -41 -72 -13 -160 -45 -201 -72
-104 -70 -109 -185 -10 -283 85 -85 240 -145 467 -181 173 -28 624 -25 848 5
606 82 1063 236 1587 538 667 384 1517 709 2233 854 275 56 425 73 630 73 265
1 371 -30 491 -141 150 -139 152 -290 5 -437 -154 -154 -415 -267 -795 -345
-372 -76 -551 -172 -551 -295 0 -57 31 -100 107 -151 110 -74 318 -136 568
-169 180 -24 343 -3 602 75 278 84 490 170 1288 525 314 139 652 287 752 329
770 318 1295 450 1660 416 446 -42 746 -146 769 -265 17 -94 -122 -211 -390
-328 -56 -25 -305 -113 -555 -197 -528 -176 -746 -257 -926 -345 -158 -77
-215 -122 -215 -171 0 -24 6 -38 23 -48 42 -27 129 -46 266 -57 162 -14 899
-7 1626 15 1776 55 2758 42 3343 -44 127 -18 151 -17 165 7 21 34 718 958 892
1183 1384 1780 2557 3063 3313 3624 50 37 92 70 92 72 0 7 -203 2 -500 -12z"/>
<path d="M52878 34028 c-264 -411 -614 -783 -946 -1006 -127 -86 -238 -143
-407 -210 -357 -141 -622 -310 -866 -552 -134 -133 -212 -229 -319 -392 -250
-380 -390 -859 -390 -1332 l0 -139 133 129 c248 241 519 440 790 579 285 146
481 206 782 240 239 26 388 95 562 259 364 344 626 1003 718 1806 18 156 30
614 18 679 l-8 44 -67 -105z"/>
<path d="M16413 33671 c-134 -275 -393 -595 -654 -805 -139 -113 -335 -237
-535 -339 -104 -54 -229 -127 -279 -162 -326 -233 -537 -555 -623 -955 -61
-282 -55 -628 19 -984 38 -182 131 -473 209 -651 l22 -50 42 120 c132 378 321
702 528 907 114 113 223 181 391 245 78 30 167 68 197 85 245 137 417 322 554
594 228 456 299 1113 210 1939 -9 83 -19 153 -23 156 -3 4 -29 -41 -58 -100z"/>
<path d="M16733 31203 c-26 -76 -101 -250 -148 -344 -137 -272 -301 -481 -538
-685 -155 -133 -284 -229 -610 -449 -312 -211 -361 -256 -430 -398 -80 -162
-107 -305 -107 -558 0 -368 78 -750 262 -1279 63 -181 175 -461 242 -604 l51
-109 0 214 c1 173 5 238 23 339 55 318 173 606 349 853 81 112 265 301 402
412 343 275 539 578 640 987 48 196 64 336 64 573 0 307 -43 615 -127 896 -51
171 -60 189 -73 152z"/>
<path d="M52565 31132 c-102 -126 -412 -434 -540 -536 -201 -160 -367 -263
-547 -340 -130 -55 -257 -84 -423 -96 -367 -26 -676 -148 -1010 -399 -193
-146 -411 -389 -548 -611 -70 -113 -161 -310 -206 -447 -38 -115 -99 -379 -89
-388 2 -3 65 20 139 49 287 115 665 234 962 302 292 67 540 103 857 124 256
17 407 78 603 244 397 338 750 1158 862 2007 25 192 24 195 -60 91z"/>
<path d="M17175 28942 c-68 -691 -334 -1250 -736 -1545 -186 -136 -278 -311
-330 -622 -21 -123 -18 -554 5 -730 93 -727 372 -1497 649 -1793 45 -47 129
-112 146 -112 4 0 6 143 7 318 1 522 47 886 151 1186 70 202 148 321 274 417
98 74 162 153 227 278 167 317 253 728 253 1196 0 346 -43 614 -136 856 -91
236 -237 438 -400 554 -106 75 -102 75 -110 -3z"/>
<path d="M52064 28468 c-303 -455 -820 -635 -1949 -678 -149 -6 -313 -17 -365
-26 -492 -83 -957 -472 -1333 -1115 -102 -174 -316 -633 -302 -647 1 -2 76 33
166 77 178 87 289 127 474 171 260 63 285 65 1115 65 669 0 769 2 874 18 226
34 368 108 541 282 251 253 465 653 655 1223 83 249 208 717 195 730 -1 1 -33
-43 -71 -100z"/>
<path d="M18385 26683 c16 -40 43 -197 50 -284 13 -177 -32 -413 -120 -636
-61 -150 -161 -352 -371 -739 -258 -479 -423 -820 -485 -1006 -191 -570 95
-1226 798 -1830 174 -148 476 -368 490 -355 3 3 -2 36 -11 74 -92 408 -99
1012 -16 1458 56 298 135 534 285 845 164 340 190 444 189 745 0 177 -3 215
-27 328 -93 442 -346 924 -701 1334 -69 80 -96 102 -81 66z"/>
<path d="M50835 25589 c-102 -33 -392 -106 -550 -138 -401 -80 -672 -108
-1155 -121 -375 -10 -546 -25 -750 -66 -586 -119 -1068 -465 -1505 -1078 -101
-142 -148 -216 -137 -216 5 0 75 11 157 25 347 59 777 86 1055 66 200 -15 342
-38 526 -87 124 -32 153 -36 264 -37 150 0 258 19 425 75 566 188 1196 702
1575 1285 62 94 170 290 170 307 0 9 -9 7 -75 -15z"/>
<path d="M19705 24394 c6 -62 35 -208 112 -574 37 -175 39 -404 5 -565 -45
-211 -136 -456 -315 -845 -131 -285 -152 -371 -152 -625 1 -201 17 -303 80
-491 150 -450 518 -970 1010 -1428 155 -144 304 -271 310 -264 3 3 -13 43 -35
90 -190 405 -241 975 -140 1545 41 230 90 397 244 827 26 70 58 185 73 255 23
110 27 150 27 311 0 192 -10 274 -56 440 -45 167 -146 378 -260 548 -194 287
-563 635 -872 822 l-39 23 8 -69z"/>
<path d="M49381 23328 c-216 -204 -575 -345 -1028 -405 -91 -12 -198 -16 -373
-16 -273 0 -442 18 -701 73 -296 63 -293 63 -469 57 -183 -6 -283 -24 -455
-81 -349 -117 -729 -347 -1110 -671 -143 -122 -348 -316 -341 -323 3 -2 47 7
98 22 393 110 784 80 1338 -104 96 -31 342 -123 545 -203 641 -251 778 -284
945 -227 306 104 716 529 1190 1235 181 270 439 690 429 700 -2 2 -33 -24 -68
-57z"/>
<path d="M21720 22318 c1 -7 7 -53 16 -103 21 -130 29 -502 15 -676 -33 -385
-128 -778 -286 -1179 -121 -307 -149 -528 -99 -792 104 -551 622 -1107 1389
-1491 167 -84 374 -172 382 -163 3 2 -7 22 -20 44 -176 278 -307 624 -375 992
-26 143 -26 151 -23 485 9 763 6 1082 -12 1235 -88 724 -333 1220 -753 1522
-102 72 -234 144 -234 126z"/>
<path d="M36200 22193 c-366 -35 -735 -143 -1070 -314 -52 -26 -100 -52 -107
-56 -6 -4 82 -8 195 -8 176 -1 222 -4 309 -23 757 -165 1292 -837 1518 -1907
14 -66 28 -131 31 -145 l6 -25 9 23 c17 44 89 351 128 547 80 399 114 697 114
1000 0 400 -70 624 -230 731 -169 115 -468 187 -756 182 -62 0 -128 -3 -147
-5z"/>
<path d="M31120 21893 c-84 -10 -272 -58 -390 -98 -254 -87 -533 -229 -807
-412 -189 -125 -197 -138 -47 -75 102 43 258 80 390 93 402 39 787 -138 1061
-488 99 -127 813 -1201 1158 -1743 56 -88 55 -88 79 71 27 186 39 405 33 614
-17 587 -155 1086 -424 1538 -156 260 -342 412 -588 478 -65 18 -113 22 -255
24 -96 2 -191 1 -210 -2z"/>
<path d="M32852 21738 c259 -258 418 -563 480 -918 7 -42 12 -147 12 -240 0
-140 -5 -194 -33 -355 -31 -181 -33 -199 -28 -375 6 -202 17 -271 72 -437 88
-264 263 -515 488 -697 26 -21 49 -37 51 -35 3 2 -6 48 -19 101 -35 143 -49
276 -42 397 14 257 82 438 325 874 202 362 274 579 275 827 1 158 -47 278
-160 400 -151 163 -359 279 -699 389 -215 70 -522 136 -772 166 l-53 6 103
-103z"/>
<path d="M37988 21833 l-36 -4 43 -92 c94 -199 129 -378 129 -652 0 -274 -32
-448 -130 -722 -112 -310 -155 -446 -181 -568 -24 -118 -27 -151 -27 -345 -1
-171 3 -231 17 -294 25 -114 68 -232 112 -312 44 -79 43 -80 69 61 46 243 205
512 438 742 120 119 199 183 360 295 265 181 398 393 430 684 57 526 -300
1044 -810 1175 -129 33 -288 45 -414 32z"/>
<path d="M44530 21329 c-345 -39 -696 -191 -1040 -450 -154 -116 -263 -212
-458 -404 l-164 -160 219 -6 c120 -4 268 -14 328 -24 439 -67 832 -206 1235
-440 164 -95 240 -127 360 -149 95 -19 284 -21 397 -5 482 66 1132 407 1798
943 122 97 295 247 315 271 14 17 13 18 -12 12 -194 -49 -558 -70 -805 -48
-385 35 -753 127 -1193 299 -186 72 -283 103 -410 130 -185 40 -392 51 -570
31z"/>
<path d="M34920 20836 c0 -7 7 -35 15 -62 48 -162 70 -349 55 -468 -21 -173
-74 -294 -247 -572 -269 -430 -387 -656 -427 -819 -58 -233 -6 -485 148 -725
103 -159 283 -343 481 -490 98 -73 243 -166 249 -159 2 2 0 47 -6 99 -15 141
-4 451 21 595 54 308 141 502 313 695 240 270 472 610 627 918 l32 64 -33 55
c-45 75 -200 237 -317 331 -180 145 -446 313 -731 464 -139 74 -180 91 -180
74z"/>
<path d="M29860 20749 c-439 -45 -811 -485 -1060 -1255 -45 -140 -109 -382
-126 -479 l-7 -40 41 35 c22 19 96 85 164 147 314 286 534 430 763 499 82 25
105 28 255 28 150 1 174 -1 262 -26 133 -37 248 -86 408 -173 254 -137 488
-229 711 -276 167 -36 549 -32 549 5 0 18 -185 294 -284 425 -208 274 -489
576 -676 725 -363 289 -694 416 -1000 385z"/>
<path d="M39684 20583 c4 -15 10 -90 13 -165 7 -167 -6 -266 -53 -408 -88
-265 -232 -443 -541 -668 -295 -214 -517 -421 -670 -622 -64 -84 -163 -243
-163 -261 0 -23 422 -69 690 -76 662 -17 1101 122 1289 408 77 119 169 386
203 589 19 115 16 358 -6 460 -56 268 -186 467 -395 609 -94 64 -241 130 -345
155 -27 7 -28 6 -22 -21z"/>
<path d="M23750 20571 c0 -5 9 -25 19 -43 71 -120 166 -417 206 -638 69 -386
59 -680 -40 -1135 -32 -147 -44 -409 -26 -548 88 -658 584 -1190 1409 -1512
135 -52 361 -125 389 -125 8 0 -7 17 -34 38 -127 101 -243 323 -312 598 -74
293 -91 477 -101 1094 -9 547 -13 604 -71 840 -74 300 -201 537 -398 743 -170
177 -328 289 -736 522 -132 76 -255 146 -272 157 -18 11 -33 15 -33 9z"/>
<path d="M42060 19720 c-450 -62 -826 -255 -1090 -560 l-49 -57 202 0 c275 0
457 -26 690 -100 366 -116 665 -327 906 -641 103 -133 208 -202 372 -243 116
-30 336 -23 484 14 357 90 762 298 1215 623 182 130 440 335 440 348 0 3 -91
6 -202 6 -307 0 -564 29 -857 97 -270 62 -472 132 -743 259 -262 123 -471 192
-708 234 -101 18 -171 23 -360 26 -129 1 -264 -1 -300 -6z"/>
<path d="M36658 19423 c-209 -216 -290 -396 -386 -858 -38 -182 -77 -279 -161
-406 -122 -185 -277 -342 -500 -506 -28 -21 161 3 375 48 272 56 555 146 783
249 140 63 175 85 228 143 85 92 118 195 117 362 -1 255 -112 585 -322 963
-25 45 -48 82 -52 82 -4 0 -40 -35 -82 -77z"/>
<path d="M26149 19055 c173 -191 297 -491 346 -841 9 -59 20 -191 25 -293 5
-102 16 -219 25 -259 34 -161 101 -323 195 -467 169 -258 470 -530 763 -690
l69 -38 -6 44 c-8 60 -12 714 -7 1154 4 396 1 431 -59 576 -78 188 -266 389
-493 528 -107 65 -292 154 -424 204 -125 48 -364 119 -443 132 l-44 7 53 -57z"/>
<path d="M30054 18869 c-386 -29 -701 -126 -891 -271 -159 -121 -266 -342
-309 -630 -22 -152 -15 -505 14 -693 24 -152 70 -366 82 -379 21 -21 532 359
925 688 540 452 1366 1194 1342 1207 -16 9 -184 36 -337 54 -286 33 -590 43
-826 24z"/>
<path d="M31875 18676 c-251 -57 -531 -259 -770 -555 -30 -38 -55 -71 -55 -75
0 -4 64 -4 143 0 426 19 743 -81 1232 -392 447 -284 612 -349 915 -361 176 -7
269 10 399 74 128 62 217 150 284 280 43 84 87 217 87 265 0 16 -10 18 -118
18 -372 0 -760 149 -1497 575 -126 73 -259 143 -295 155 -82 28 -238 36 -325
16z"/>
<path d="M40350 18391 c0 -6 23 -39 51 -73 250 -309 388 -754 349 -1121 -22
-200 -24 -188 43 -219 271 -130 697 -113 1117 43 158 59 438 201 600 304 145
93 370 254 370 265 0 4 -42 10 -92 14 -368 27 -723 175 -998 416 -52 45 -126
103 -163 127 -167 109 -387 185 -667 228 -132 21 -610 33 -610 16z"/>
<path d="M37795 17914 c-44 -8 -117 -26 -162 -39 -87 -27 -303 -130 -303 -145
0 -5 26 -14 58 -20 335 -67 602 -194 871 -413 51 -42 174 -152 273 -244 291
-270 404 -357 585 -447 251 -125 532 -168 705 -108 172 61 297 206 372 432 48
146 67 258 73 451 l6 166 -86 -18 c-240 -52 -552 -72 -767 -50 -308 32 -520
104 -792 268 -121 72 -241 124 -361 154 -110 28 -358 35 -472 13z"/>
<path d="M30955 17690 c-282 -43 -622 -242 -1002 -589 -62 -56 -113 -107 -113
-112 0 -6 22 -8 58 -4 128 15 348 -41 523 -131 226 -117 394 -256 699 -578 85
-90 179 -155 277 -192 413 -157 1016 39 1698 551 83 62 170 131 195 153 l45
41 -105 -6 c-320 -17 -694 62 -1007 212 -222 106 -368 200 -685 436 -111 84
-229 165 -263 180 -93 43 -203 57 -320 39z"/>
<path d="M36490 17354 c-186 -10 -534 -54 -568 -73 -8 -5 12 -18 55 -36 191
-80 342 -173 452 -279 123 -119 187 -221 313 -495 202 -443 342 -654 618 -933
205 -207 324 -285 518 -341 115 -32 304 -30 425 7 216 65 436 216 625 429 67
75 162 198 162 209 0 3 -49 8 -110 12 -333 20 -577 109 -768 281 -78 70 -162
183 -321 428 -335 518 -483 657 -786 736 -153 40 -423 64 -615 55z"/>
<path d="M34910 17118 c-168 -10 -343 -45 -522 -104 -43 -14 -80 -29 -83 -34
-3 -4 10 -11 28 -14 45 -8 145 -57 219 -107 90 -61 251 -226 346 -353 132
-179 303 -483 412 -736 203 -470 600 -747 1185 -825 162 -22 486 -22 670 0
128 15 335 51 344 60 2 2 -7 6 -20 9 -13 2 -85 16 -159 30 -326 61 -581 186
-775 381 -160 160 -278 362 -435 745 -90 221 -203 452 -271 555 -128 194 -305
317 -538 371 -86 21 -270 31 -401 22z"/>
<path d="M33853 16900 c-90 -36 -211 -254 -292 -529 -35 -116 -39 -196 -20
-387 40 -416 168 -716 408 -955 245 -245 556 -378 988 -420 164 -16 563 -2
563 20 0 3 -26 17 -58 30 -295 126 -546 410 -792 896 -85 166 -207 446 -330
755 -34 85 -95 223 -135 305 -108 223 -174 296 -266 294 -24 0 -54 -4 -66 -9z"/>
<path d="M40685 16621 c-46 -12 -68 -26 -113 -75 -94 -102 -154 -282 -198
-596 -21 -151 -31 -845 -15 -1012 20 -207 74 -370 171 -517 208 -316 599 -511
1114 -557 73 -6 78 -5 73 12 -17 57 -80 363 -106 514 -65 374 -87 597 -101
1005 -13 368 -25 542 -46 620 -47 181 -159 313 -384 453 -212 132 -317 173
-395 153z"/>
<path d="M41603 16544 c83 -64 180 -206 237 -344 105 -256 141 -546 120 -983
-28 -587 32 -991 201 -1346 77 -162 151 -272 262 -388 117 -121 233 -209 372
-277 173 -86 350 -135 543 -151 73 -6 82 -5 82 10 0 9 -20 204 -45 433 -60
564 -128 1238 -165 1637 -16 182 -37 364 -46 405 -28 137 -123 307 -238 428
-197 208 -583 415 -992 531 -133 38 -320 81 -353 81 -22 0 -19 -4 22 -36z"/>
<path d="M29255 16549 c-186 -19 -421 -92 -630 -195 -127 -62 -231 -122 -224
-129 2 -1 36 0 76 4 159 15 320 -14 472 -85 120 -56 198 -112 292 -211 128
-134 207 -266 292 -488 29 -77 70 -166 91 -198 231 -348 836 -349 1721 -2 88
35 203 82 255 105 150 66 420 201 420 209 0 5 -21 5 -48 0 -376 -59 -810 41
-1238 286 -178 101 -346 215 -600 406 -300 225 -400 274 -619 299 -101 11
-144 11 -260 -1z"/>
<path d="M43410 16260 c0 -5 4 -10 9 -10 19 0 80 -114 110 -206 94 -283 152
-737 181 -1409 25 -583 99 -942 260 -1267 169 -338 444 -569 726 -607 53 -7
56 -7 65 16 5 13 40 150 79 306 114 452 191 863 242 1285 30 247 33 775 4 927
-40 218 -103 362 -201 461 -158 159 -495 335 -808 423 -212 59 -667 115 -667
81z"/>
<path d="M39860 16102 c-160 -136 -453 -430 -551 -552 -172 -214 -257 -372
-274 -513 -27 -215 236 -467 682 -653 117 -49 317 -115 321 -105 1 4 -13 41
-31 82 -64 139 -99 313 -118 589 -24 339 16 895 82 1168 12 46 19 85 17 87 -2
2 -60 -44 -128 -103z"/>
<path d="M27472 16009 c-67 -5 -137 -12 -155 -17 -28 -8 -29 -10 -12 -17 352
-126 593 -518 730 -1188 42 -204 73 -304 128 -412 234 -453 751 -554 1502
-295 166 58 324 125 490 207 154 77 325 175 325 186 0 5 -8 6 -17 2 -37 -14
-516 -18 -618 -5 -329 41 -551 185 -748 485 -32 50 -104 182 -159 295 -115
235 -148 288 -238 384 -227 240 -543 362 -990 379 -63 3 -170 1 -238 -4z"/>
<path d="M25915 15953 c-22 -1 -77 -5 -123 -9 l-82 -6 61 -66 c86 -94 186
-249 267 -415 113 -231 176 -407 316 -884 175 -597 580 -974 1173 -1094 136
-27 476 -38 634 -19 107 12 307 47 322 57 5 3 -51 35 -125 72 -516 257 -828
642 -877 1084 -6 53 -11 128 -11 168 0 39 -7 119 -16 177 -73 496 -385 801
-920 901 -181 34 -443 49 -619 34z"/>
<path d="M32940 15878 c-379 -276 -679 -580 -821 -832 l-33 -59 30 -24 c158
-132 419 -255 697 -328 231 -61 589 -111 730 -103 l57 3 -69 53 c-283 215
-452 585 -492 1072 -6 80 -9 175 -6 213 3 37 3 67 -1 67 -4 0 -45 -28 -92 -62z"/>
<path d="M24055 15800 c-122 -13 -288 -40 -298 -50 -10 -9 96 -252 259 -595
253 -531 652 -1254 785 -1422 243 -305 631 -496 1159 -568 222 -30 656 -30
852 2 38 6 43 23 8 23 -37 0 -215 63 -300 105 -273 138 -468 351 -650 713 -78
156 -148 330 -265 662 -149 423 -218 586 -304 718 -136 209 -356 338 -671 393
-133 24 -431 33 -575 19z"/>
<path d="M8410 9078 c0 -2 -452 -1101 -1004 -2443 l-1003 -2440 -281 -3 -282
-2 0 -50 0 -50 640 0 640 0 0 50 0 50 -295 0 c-162 0 -295 3 -295 8 0 4 165
406 367 894 l368 888 805 0 805 0 386 -892 386 -893 -308 -3 -309 -2 0 -55 0
-55 1135 0 1135 0 0 55 0 55 -291 2 -290 3 -1058 2440 -1057 2440 -97 3 c-53
1 -97 1 -97 0z m44 -2105 c207 -479 376 -874 376 -877 0 -3 -342 -6 -760 -6
-418 0 -760 2 -760 5 0 4 650 1592 727 1775 l14 35 13 -30 c7 -16 183 -422
390 -902z"/>
<path d="M22749 6625 l-1004 -2445 -282 0 -283 0 0 -50 0 -50 640 0 640 0 0
50 0 50 -295 0 c-162 0 -295 2 -295 5 0 2 165 402 366 887 202 486 369 889
371 896 4 9 175 12 808 12 l802 0 387 -894 c212 -491 386 -896 386 -900 0 -3
-139 -6 -310 -6 l-310 0 0 -50 0 -50 1140 0 1140 0 0 50 0 50 -292 0 -293 1
-908 2097 c-499 1153 -976 2253 -1059 2445 l-151 347 -96 0 -97 0 -1005 -2445z
m1050 340 l380 -880 -761 -3 c-419 -1 -763 -1 -764 1 -2 1 164 411 369 909
345 841 373 905 384 880 6 -15 183 -423 392 -907z"/>
<path d="M32805 7097 c-445 -1085 -897 -2185 -1004 -2444 l-194 -473 -283 0
-284 0 0 -55 0 -55 640 0 640 0 0 55 0 55 -294 2 -295 3 330 795 c181 437 348
839 370 893 l41 97 806 -2 805 -3 379 -875 c208 -481 381 -883 384 -892 5 -17
-14 -18 -305 -18 l-311 0 0 -55 0 -55 1140 0 1140 0 0 55 0 55 -292 0 -293 1
-1059 2444 -1059 2445 -96 0 -96 -1 -810 -1972z m846 -115 l388 -897 -385 -3
c-212 -1 -555 -1 -763 0 l-377 3 370 902 c204 496 373 900 375 897 2 -2 179
-408 392 -902z"/>
<path d="M46836 9052 c-3 -6 -1953 -4746 -2003 -4869 -4 -10 -71 -13 -289 -13
l-284 0 0 -50 0 -50 645 0 645 0 0 50 0 50 -299 2 -299 3 372 897 371 898 804
-3 805 -2 387 -895 386 -895 -308 -3 -309 -2 0 -50 0 -50 1135 0 1135 0 0 50
0 50 -291 2 -290 3 -1057 2440 -1058 2440 -96 3 c-53 1 -99 -1 -102 -6z m37
-2073 c214 -495 387 -903 384 -905 -2 -2 -345 -3 -763 -2 l-759 3 370 902
c203 497 372 903 375 903 3 0 180 -406 393 -901z"/>
<path d="M18665 8974 c-392 -53 -783 -206 -1125 -442 -544 -374 -946 -960
-1064 -1554 -40 -201 -49 -309 -43 -566 5 -260 21 -384 78 -586 154 -556 542
-1081 1044 -1414 212 -141 497 -270 742 -338 214 -58 340 -76 596 -81 417 -10
606 33 1105 251 258 113 319 133 434 142 132 11 245 -42 263 -125 7 -31 7 -31
71 -31 l64 0 0 775 0 775 220 0 220 0 0 50 0 50 -1045 0 -1045 0 0 -50 0 -50
346 0 347 0 -6 -352 c-6 -380 -19 -526 -61 -691 -88 -347 -284 -551 -597 -624
-113 -26 -444 -23 -599 5 -469 85 -744 323 -905 783 -137 393 -183 879 -172
1814 8 595 31 871 97 1130 105 415 299 695 612 882 189 113 490 174 793 160
479 -22 802 -216 1070 -643 106 -168 224 -441 286 -661 l23 -83 53 0 53 0 0
695 0 695 -57 0 -58 0 -27 -50 c-65 -117 -162 -124 -463 -34 -213 64 -572 151
-696 169 -131 19 -414 18 -554 -1z"/>
<path d="M0 8840 l0 -50 310 0 310 0 0 -1887 c0 -1039 -3 -2074 -7 -2300 l-6
-413 -304 0 -303 0 0 -50 0 -50 675 0 675 0 0 50 0 50 -310 0 -310 0 1 2303
c0 1460 4 2295 10 2282 5 -11 380 -1068 833 -2350 l823 -2330 60 -3 c58 -3 61
-2 71 25 5 15 374 1061 820 2323 446 1262 815 2306 821 2320 6 17 10 -712 10
-2272 l1 -2298 -305 0 -305 0 0 -50 0 -50 1105 0 1105 0 0 50 0 50 -312 0
-311 0 6 278 c4 152 7 1187 7 2300 l0 2022 310 0 310 0 0 50 0 50 -849 0 -848
0 -30 -82 c-17 -46 -284 -800 -594 -1677 -519 -1469 -564 -1591 -575 -1565 -7
16 -266 763 -577 1659 -311 897 -569 1638 -572 1648 -7 16 -58 17 -876 17
l-869 0 0 -50z"/>
<path d="M11350 8835 l0 -55 310 0 310 0 0 -2023 c0 -1113 -3 -2146 -7 -2295
l-6 -272 -304 0 -303 0 0 -55 0 -55 675 0 675 0 0 55 0 55 -310 0 -310 0 0
2106 c0 1158 3 2103 8 2100 4 -2 687 -974 1517 -2160 l1510 -2155 98 0 97 -1
0 2350 0 2350 310 0 310 0 0 55 0 55 -680 0 -680 0 0 -55 0 -55 310 0 310 0 0
-1545 c0 -850 -2 -1545 -4 -1545 -2 0 -507 720 -1122 1600 l-1118 1600 -798 0
-798 0 0 -55z"/>
<path d="M51255 8880 c-110 -4 -487 -8 -837 -9 l-638 -1 0 -50 0 -50 310 0
310 0 0 -2300 0 -2300 -310 0 -310 0 0 -50 0 -50 1115 0 1115 0 0 50 0 50
-310 0 -310 0 0 1211 0 1211 318 -4 c285 -4 325 -7 395 -26 299 -82 478 -304
557 -691 22 -110 43 -340 65 -721 25 -430 43 -534 119 -695 135 -283 379 -438
749 -476 143 -15 383 -5 502 20 173 36 263 84 398 211 l78 73 -32 33 c-18 19
-37 34 -42 34 -5 0 -48 -37 -95 -81 -103 -97 -166 -130 -262 -137 -188 -13
-271 65 -319 303 -25 127 -34 210 -71 690 -17 215 -38 436 -46 493 -77 529
-328 792 -885 926 -77 19 -237 54 -355 77 -234 46 -264 62 -141 73 39 4 139
21 221 37 476 97 795 300 949 604 115 229 112 600 -8 850 -93 195 -284 375
-522 494 -178 89 -353 141 -618 182 -123 19 -187 22 -515 24 -206 1 -465 -1
-575 -5z m575 -100 c288 -31 468 -138 567 -340 95 -192 127 -381 127 -750 1
-270 -10 -393 -46 -510 -64 -210 -210 -361 -415 -429 -111 -37 -234 -51 -460
-51 l-213 0 0 1034 0 1034 88 7 c48 3 94 8 102 9 33 8 160 5 250 -4z"/>
<path d="M26730 8607 c0 -151 -3 -430 -7 -621 l-6 -347 52 3 53 3 47 140 c179
531 387 795 720 915 135 49 284 71 539 77 l222 6 0 -2301 0 -2302 -310 0 -310
0 0 -50 0 -50 1110 0 1110 0 0 50 0 50 -310 0 -310 0 0 1608 c0 885 3 1921 7
2302 l6 693 216 -6 c397 -11 602 -68 797 -223 181 -143 326 -384 449 -746 l58
-168 48 0 49 0 0 620 0 620 -2115 0 -2115 0 0 -273z"/>
<path d="M38430 8825 l0 -55 312 0 311 0 -6 -457 c-4 -252 -7 -1285 -7 -2295
l0 -1838 -310 0 -310 0 0 -55 0 -55 680 0 680 0 0 55 0 55 -310 0 -310 0 1
2298 c0 1456 4 2290 10 2277 5 -11 380 -1068 833 -2350 l823 -2330 59 -3 60
-3 809 2293 c444 1261 819 2320 831 2353 l23 60 1 -2302 0 -2303 -310 0 -310
0 0 -50 0 -50 1110 0 1110 0 0 50 0 50 -310 0 -310 0 0 1708 c0 939 3 1974 7
2300 l6 592 309 0 308 0 0 55 0 55 -849 0 -848 0 -55 -153 c-30 -85 -297 -840
-593 -1679 -297 -839 -543 -1521 -546 -1514 -4 6 -267 761 -585 1679 l-578
1667 -868 0 -868 0 0 -55z"/>
<path d="M54670 8820 l0 -50 310 0 310 0 0 -2300 0 -2300 -310 0 -310 0 0 -55
0 -55 1115 0 1115 0 0 55 0 55 -310 0 -310 0 0 2300 0 2300 310 0 310 0 0 50
0 50 -1115 0 -1115 0 0 -50z"/>
<path d="M57380 8820 l0 -50 228 0 c125 0 264 -3 310 -7 l82 -6 0 -2293 0
-2294 -310 0 -310 0 0 -55 0 -55 680 0 680 0 0 55 0 55 -310 0 -310 0 0 2106
0 2106 238 -338 c131 -187 813 -1159 1516 -2161 l1278 -1823 94 0 94 0 0 2350
0 2350 310 0 310 0 0 55 0 55 -675 0 -675 0 0 -55 0 -55 310 0 310 0 0 -1552
c0 -853 -3 -1548 -7 -1544 -4 4 -510 726 -1124 1604 l-1116 1597 -802 3 -801
2 0 -50z"/>
<path d="M62390 8815 l0 -55 310 0 310 0 0 -2295 0 -2295 -310 0 -310 0 0 -55
0 -55 2155 0 2155 0 0 739 0 739 -46 4 c-26 2 -48 -1 -49 -7 -2 -5 -15 -55
-30 -110 -54 -201 -155 -428 -262 -590 -156 -237 -348 -411 -578 -524 -280
-139 -402 -153 -1207 -144 l-528 6 0 1210 0 1209 293 -4 c336 -6 388 -14 532
-83 157 -75 280 -199 372 -372 46 -86 105 -252 154 -428 l31 -115 49 0 49 0 0
1050 0 1050 -49 0 -48 0 -32 -126 c-128 -512 -343 -764 -726 -850 -51 -12
-146 -17 -347 -21 l-278 -5 0 1036 0 1036 589 0 c603 0 673 -4 820 -41 160
-41 383 -173 521 -310 147 -146 285 -374 370 -611 l35 -98 48 0 47 0 0 585 0
585 -2020 0 -2020 0 0 -55z"/>
<path d="M23774 2236 c-154 -30 -285 -81 -398 -157 -243 -165 -399 -396 -462
-689 -26 -120 -26 -410 0 -530 23 -107 65 -224 111 -307 142 -258 397 -454
680 -524 105 -26 323 -36 436 -20 219 32 428 135 595 294 l74 70 0 413 0 414
-565 0 -565 0 0 -155 0 -155 405 0 405 0 0 -190 0 -190 -52 -41 c-75 -60 -217
-124 -318 -145 -99 -20 -247 -15 -345 12 -280 75 -496 324 -545 627 -16 99 -8
329 15 412 38 135 112 260 212 357 155 150 340 217 563 205 226 -13 404 -97
544 -257 27 -30 52 -59 57 -65 10 -10 94 68 181 168 l51 58 -69 70 c-151 153
-323 256 -510 305 -83 22 -126 27 -264 30 -111 2 -188 -1 -236 -10z"/>
<path d="M32825 2236 c-227 -37 -388 -120 -542 -279 -196 -202 -293 -432 -318
-754 -8 -107 10 -302 40 -418 95 -376 362 -658 713 -753 89 -24 113 -26 287
-26 147 0 205 3 257 17 189 47 352 140 477 272 207 219 311 494 311 827 0 339
-109 624 -320 838 -129 131 -268 210 -449 256 -120 31 -334 40 -456 20z m373
-322 c261 -66 463 -304 511 -605 14 -82 14 -285 1 -367 -47 -290 -228 -518
-474 -599 -71 -23 -98 -26 -221 -27 -231 -2 -343 41 -491 189 -76 76 -97 105
-137 185 -71 144 -91 241 -91 435 0 131 4 176 22 247 77 311 286 513 573 557
79 12 230 5 307 -15z"/>
<path d="M27680 1126 l0 -1096 160 0 160 0 0 425 0 426 152 -3 151 -3 296
-420 296 -420 198 -3 c108 -1 197 1 197 4 0 4 -138 200 -306 436 -169 236
-305 430 -303 432 2 2 27 11 55 20 175 57 334 216 391 390 34 105 43 292 19
404 -38 182 -161 339 -326 420 -155 76 -149 75 -672 80 l-468 3 0 -1095z m882
770 c84 -18 119 -37 175 -92 78 -78 112 -192 92 -314 -13 -86 -43 -145 -101
-202 -87 -85 -118 -91 -445 -96 l-283 -4 0 361 0 361 248 0 c174 0 267 -5 314
-14z"/>
<path d="M36923 1468 c3 -716 4 -757 24 -843 74 -327 283 -543 585 -605 106
-22 325 -27 424 -9 192 34 355 125 461 258 59 75 128 218 154 316 26 101 28
158 33 968 l4 657 -159 0 -159 0 0 -673 c0 -402 -4 -707 -10 -757 -29 -232
-125 -372 -305 -440 -83 -31 -272 -40 -365 -16 -182 46 -291 156 -347 351 -15
54 -18 137 -23 800 l-5 740 -158 3 -158 3 4 -753z"/>
<path d="M41540 1120 l0 -1090 160 0 160 0 0 424 0 425 318 3 c313 4 318 4
398 31 318 106 498 433 430 777 -39 196 -165 364 -336 449 -139 68 -165 71
-677 71 l-453 0 0 -1090z m923 760 c83 -26 155 -88 194 -168 26 -52 28 -67 28
-167 0 -92 -4 -118 -22 -157 -32 -70 -94 -131 -166 -164 l-62 -29 -287 -3
-288 -3 0 355 0 356 269 0 c241 0 276 -2 334 -20z"/>
</g>
</svg>
